<?xml version="1.0" standalone="no"?>
<!DOCTYPE svg PUBLIC "-//W3C//DTD SVG 1.1//EN" "http://www.w3.org/Graphics/SVG/1.1/DTD/svg11.dtd" >
<svg xmlns="http://www.w3.org/2000/svg">
<metadata></metadata>
<defs>
<font id="intro_book_italicitalic" horiz-adv-x="1228" >
<font-face units-per-em="2048" ascent="1536" descent="-512" />
<missing-glyph horiz-adv-x="534" />
<glyph horiz-adv-x="2048" />
<glyph horiz-adv-x="2048" />
<glyph unicode="&#xd;" horiz-adv-x="2048" />
<glyph unicode=" "  horiz-adv-x="534" />
<glyph unicode="&#x09;" horiz-adv-x="534" />
<glyph unicode="&#xa0;" horiz-adv-x="534" />
<glyph unicode="!" horiz-adv-x="520" d="M47 51q0 48 36 79.5t85 31.5q37 0 60.5 -21.5t23.5 -56.5q0 -47 -37.5 -79t-87.5 -32q-35 0 -57.5 21.5t-22.5 56.5zM121 301l229 1133h178l-252 -1133h-155z" />
<glyph unicode="&#x22;" horiz-adv-x="737" d="M233 977l97 457h153l-116 -457h-134zM526 977l97 457h151l-117 -457h-131z" />
<glyph unicode="#" horiz-adv-x="1406" d="M53 410l25 116h256l121 336h-242l25 117h260l164 453h143l-162 -453h404l163 453h146l-164 -453h207l-25 -117h-223l-121 -336h209l-25 -116h-227l-145 -410h-152l150 410h-402l-147 -410h-152l152 410h-238zM475 522h412l121 344h-410z" />
<glyph unicode="$" horiz-adv-x="1310" d="M49 391h166q-8 -60 12 -107.5t61.5 -78t93 -48.5t112.5 -24l112 535q-70 11 -122.5 24t-107.5 37t-90 55.5t-57 80t-22 110.5q0 108 50.5 197.5t133.5 147t181 91.5t202 43l29 139h139l-29 -141q84 -11 154 -39t125 -74.5t79.5 -119t10.5 -162.5h-162q8 55 -9.5 99 t-54 72t-81 45t-96.5 23l-107 -501q47 -7 82.5 -14t77.5 -17.5t73 -22.5t63 -29.5t54 -38t40 -48.5t26 -61t7.5 -74.5t-11.5 -90.5q-17 -78 -60 -144t-100.5 -113t-129 -81.5t-145 -54t-149.5 -26.5l-31 -142h-139l31 142q-93 9 -171.5 37.5t-139.5 77t-89 125t-12 171.5z M383 1006q0 -40 15 -71t38 -50.5t59 -34.5t67.5 -22.5t74.5 -14.5l104 487q-51 -5 -100.5 -19t-96.5 -39t-82.5 -57.5t-57 -79t-21.5 -99.5zM633 133q69 6 134.5 28t123.5 58.5t93.5 95.5t35.5 131q0 41 -16 73.5t-39.5 52.5t-63.5 36.5t-74.5 24.5t-85.5 18z" />
<glyph unicode="%" horiz-adv-x="1732" d="M186 1047q0 96 38 176t99.5 129.5t135 76.5t149.5 27q117 0 196 -71t79 -199q0 -96 -37.5 -176t-98.5 -130t-135 -77t-149 -27q-116 0 -196.5 72t-80.5 199zM309 -2l1006 1432h160l-1004 -1432h-162zM324 1069q0 -82 46.5 -128t116.5 -48q102 0 182.5 73t80.5 199 q0 83 -47.5 128.5t-118.5 45.5q-99 0 -179.5 -73.5t-80.5 -196.5zM905 244q0 77 25.5 144t67.5 114.5t97 81.5t113.5 50.5t116.5 16.5q117 0 197 -71t80 -199q0 -96 -37.5 -175.5t-98.5 -129.5t-134 -77.5t-148 -27.5q-117 0 -198 72t-81 201zM1038 262q0 -84 49 -130 t121 -44q97 0 176.5 75t79.5 195q0 82 -47 128.5t-117 48.5q-64 0 -122.5 -29.5t-99 -94t-40.5 -149.5z" />
<glyph unicode="&#x26;" horiz-adv-x="1331" d="M66 342q0 176 103 295.5t286 175.5q-72 24 -111 84.5t-39 140.5q0 103 45.5 186t121.5 134.5t170.5 78.5t197.5 27q128 0 215.5 -34.5t126.5 -109t12 -181.5h-145q10 44 -0.5 77.5t-33 53t-58.5 31.5t-71.5 16t-78.5 4q-60 0 -117.5 -14t-110 -43.5t-84.5 -83.5t-32 -125 q0 -189 285 -189l-29 -133q-53 0 -80 -2q-171 -12 -278 -102t-125 -256q-12 -115 66.5 -186.5t209.5 -71.5q156 0 266 86t150 264l86 401h303l-31 -137h-145l-58 -266q-54 -245 -202 -369.5t-381 -124.5q-204 0 -319 104t-115 269z" />
<glyph unicode="'" horiz-adv-x="448" d="M233 977l97 457h155l-116 -457h-136z" />
<glyph unicode="(" horiz-adv-x="632" d="M52.5 180q-5.5 188 38 398t127 398t214.5 349t287 250l51 -117q-118 -78 -221 -212.5t-175 -293.5t-114 -340t-46.5 -349.5t36.5 -323.5t127 -261l-82 -98q-114 90 -175.5 251t-67 349z" />
<glyph unicode=")" horiz-adv-x="636" d="M-152 -315q115 80 219 216t181 296.5t124 342.5t55.5 350.5t-32.5 324.5t-133 262l78 98q118 -87 180.5 -246.5t66 -348t-42.5 -399t-131.5 -399.5t-215 -350.5t-281.5 -251.5z" />
<glyph unicode="*" horiz-adv-x="833" d="M240 1204l57 109l203 -78l41 225h118l-57 -223l227 82l15 -107l-232 -71l119 -189l-104 -67l-101 192l-180 -192l-90 67l193 187z" />
<glyph unicode="+" horiz-adv-x="954" d="M135 686l27 127h297l63 297h133l-63 -297h297l-27 -127h-297l-63 -295h-133l63 295h-297z" />
<glyph unicode="," horiz-adv-x="485" d="M8 -182l80 159q-55 17 -55 76q0 48 36 79.5t87 31.5q35 0 58 -19t24 -51q0 -18 -5 -33q-8 -25 -22 -49l-102 -194h-101z" />
<glyph unicode="-" horiz-adv-x="948" d="M143 612l31 142h666l-31 -142h-666z" />
<glyph unicode="." horiz-adv-x="491" d="M33 61q0 52 37.5 83.5t89.5 31.5q39 0 63.5 -22t24.5 -58q0 -48 -38.5 -81t-90.5 -33q-38 0 -62 22t-24 57z" />
<glyph unicode="/" horiz-adv-x="1011" d="M-47 2l997 1432h168l-997 -1432h-168z" />
<glyph unicode="0" horiz-adv-x="1349" d="M123 469l104 492q32 150 127 263t227 171.5t281 58.5q226 0 348 -134.5t74 -358.5l-104 -492q-32 -150 -127 -264t-226 -172t-278 -58q-229 0 -351.5 134t-74.5 360zM289 510q-39 -179 25.5 -282t256.5 -103q125 0 233.5 61.5t164.5 169.5q28 49 55 154l94 410 q21 83 14.5 154t-35.5 122.5t-95 81t-164 29.5q-128 0 -235.5 -62.5t-164.5 -171.5q-29 -50 -55 -153z" />
<glyph unicode="1" horiz-adv-x="870" d="M-31 0l29 135h283l247 1163h-249l28 136h412l-277 -1299h285l-29 -135h-729z" />
<glyph unicode="2" horiz-adv-x="1103" d="M-29 0l9 37l770 764q66 64 111 135t60.5 137.5t2 120.5t-71 86.5t-152.5 32.5q-132 0 -213.5 -60.5t-117.5 -193.5h-146q95 395 512 395q170 0 258 -83t88 -212q0 -104 -52.5 -215.5t-158.5 -216.5l-587 -575h624l-33 -152h-903z" />
<glyph unicode="3" horiz-adv-x="1173" d="M45 385h150q-10 -127 60.5 -193.5t203.5 -66.5q152 0 261.5 86t141.5 238q14 64 4 114.5t-37.5 88.5t-71.5 63t-97.5 36t-115.5 8.5t-126 -18.5l8 39l498 508h-623l31 146h901l-6 -27l-522 -541q160 -6 244.5 -98.5t84.5 -243.5q0 -148 -75.5 -273t-215.5 -200.5 t-315 -75.5q-195 0 -301 110t-82 300z" />
<glyph unicode="4" horiz-adv-x="1202" d="M4 322l16 73l947 1039h168l-207 -973h147l-28 -139h-148l-68 -322h-155l67 322h-739zM252 455h530l76 360l96 426h-2z" />
<glyph unicode="5" horiz-adv-x="1183" d="M74 373h157q-11 -134 56.5 -189t201.5 -55q55 0 111 14t111.5 42.5t100 82t65.5 123.5q40 135 11 221t-105.5 131.5t-180 56.5t-211.5 -5t-201 -54l148 693h840l-33 -154h-690l-78 -367q102 23 229 23q108 0 197.5 -33.5t150.5 -94.5t88 -152t11 -201 q-13 -140 -99 -250.5t-216 -169t-279 -58.5q-193 0 -301 103.5t-84 292.5z" />
<glyph unicode="6" horiz-adv-x="1206" d="M43 358q0 201 162 383l606 699h188l-493 -578q91 49 192 49q187 0 300.5 -98t113.5 -272q0 -130 -53 -237.5t-142 -177t-203 -107t-239 -37.5q-193 0 -312.5 99t-119.5 277zM209 389q-7 -124 77.5 -192t221.5 -68q113 0 213.5 50t162.5 140t62 197q0 121 -84.5 189.5 t-218.5 68.5q-175 0 -298.5 -104.5t-135.5 -280.5z" />
<glyph unicode="7" horiz-adv-x="1056" d="M63 0l869 1286h-719q7 29 16.5 74.5t16.5 73.5h956l-6 -25l-954 -1409h-179z" />
<glyph unicode="8" horiz-adv-x="1265" d="M63 338q0 90 29.5 166t83 132t119 96.5t147.5 70.5q-64 33 -101.5 94.5t-37.5 140.5q0 116 70 212t188 150t256 54q162 0 263.5 -83t101.5 -218q0 -122 -77 -218.5t-194 -143.5q217 -86 217 -302q0 -145 -86 -262.5t-228.5 -182t-309.5 -64.5q-200 0 -320.5 94.5 t-120.5 263.5zM231 373q-4 -115 78 -182.5t209 -67.5q79 0 156.5 24.5t140.5 68.5t103.5 112t44.5 147q4 118 -77 184t-210 66q-109 0 -207.5 -41.5t-165.5 -123.5t-72 -187zM451 1047q-4 -88 59 -137.5t164 -49.5q84 0 161 29.5t130.5 91.5t56.5 143q1 90 -62.5 141.5 t-164.5 51.5q-83 0 -159.5 -31t-129 -94.5t-55.5 -144.5z" />
<glyph unicode="9" horiz-adv-x="1202" d="M152 905q0 131 53 238.5t141.5 176.5t202.5 106.5t239 37.5q193 0 314 -99t121 -278q0 -98 -38 -190t-132 -197l-600 -700h-189l502 584q-100 -49 -197 -49q-188 0 -302.5 98t-114.5 272zM319 938q-7 -123 69.5 -194.5t207.5 -71.5q177 0 312 106t147 279 q7 121 -69.5 192.5t-207.5 71.5q-178 0 -312.5 -105.5t-146.5 -277.5z" />
<glyph unicode=":" horiz-adv-x="491" d="M31 61q0 52 37.5 83.5t89.5 31.5q39 0 63.5 -22t24.5 -58q0 -48 -38.5 -81t-90.5 -33q-38 0 -62 22t-24 57zM176 743q0 52 37.5 83.5t89.5 31.5q39 0 63.5 -22t24.5 -58q0 -48 -38.5 -81t-90.5 -33q-38 0 -62 22t-24 57z" />
<glyph unicode=";" horiz-adv-x="489" d="M16 -166l72 143q-55 17 -55 76q0 48 36 79.5t87 31.5q36 0 59.5 -19t24.5 -51q0 -21 -4 -33q-14 -33 -23 -49l-96 -178h-101zM176 743q0 49 37 81t86 32q37 0 60.5 -21.5t23.5 -56.5q0 -48 -37 -79t-86 -31q-37 0 -60.5 20t-23.5 55z" />
<glyph unicode="&#x3c;" horiz-adv-x="1081" d="M109 651l26 121l883 354l-33 -153l-676 -262l563 -275l-32 -153z" />
<glyph unicode="=" horiz-adv-x="1093" d="M121 451l29 135h788l-29 -135h-788zM188 772l29 135h789l-29 -135h-789z" />
<glyph unicode="&#x3e;" horiz-adv-x="1079" d="M111 283l30 145l680 283l-563 270l33 145l733 -354l-27 -121z" />
<glyph unicode="?" horiz-adv-x="1024" d="M182 1067q52 187 190.5 281t321.5 94q157 0 253.5 -82t96.5 -230q0 -82 -25 -147.5t-66.5 -112t-92.5 -88.5t-105.5 -87t-102.5 -95.5t-86.5 -127t-55.5 -169.5h-154q21 111 62 199.5t88.5 144t100.5 101.5t101 83t87 76.5t62.5 94t23.5 124.5q0 168 -217 168 q-103 5 -195.5 -56t-130.5 -171h-156zM283 51q0 50 37 81.5t88 31.5q38 0 61 -20.5t23 -55.5q0 -49 -36.5 -82t-88.5 -33q-37 0 -60.5 21.5t-23.5 56.5z" />
<glyph unicode="@" horiz-adv-x="1853" d="M53.5 252q0.5 118 34.5 250q60 239 213.5 427.5t369.5 293t457 104.5q185 0 325 -58t220 -165t103.5 -258t-25.5 -338q-21 -82 -48.5 -153.5t-68.5 -142t-90.5 -120.5t-116.5 -81t-143 -31q-87 0 -123.5 56.5t-9.5 143.5l10 33q-71 -108 -181.5 -166.5t-234.5 -60.5 q-87 0 -154.5 27t-108.5 75t-62 113t-20.5 141t20.5 160q40 162 142 282t234 178t277 58q113 0 214.5 -43.5t166.5 -114.5l-151 -608q-10 -37 -14 -61.5t-2.5 -47.5t14.5 -34t38 -11q51 -2 101.5 38.5t89.5 105t67.5 133t44.5 131.5q88 347 -55 531t-485 184 q-210 0 -398.5 -91.5t-322.5 -256t-188 -373.5q-31 -122 -32 -229t26 -189.5t77 -146t123.5 -99.5t162.5 -48.5t197 4t224 61.5l-27 -107q-126 -42 -243.5 -53.5t-215 7t-178.5 62t-137 115.5t-86.5 163.5t-30 209.5zM580 502q-89 -369 206 -369q146 0 259 101t155 247 l86 320q-82 82 -258 82q-151 0 -275.5 -101.5t-172.5 -279.5z" />
<glyph unicode="A" horiz-adv-x="1441" d="M-100 0l4 23l968 1417h78l361 -1417l-4 -23h-170l-90 354h-723l-240 -354h-184zM412 502h608l-160 669z" />
<glyph unicode="B" horiz-adv-x="1370" d="M66 0l305 1434h559q175 0 277 -77t102 -231q0 -134 -73.5 -240t-193.5 -149q195 -62 195 -260q0 -218 -155.5 -347.5t-395.5 -129.5h-620zM266 147h439q135 0 228.5 61.5t121.5 186.5q7 36 7 67q0 30 -6 54q-14 50 -55 82t-97.5 46.5t-129.5 14.5h-399zM406 803h378 q86 0 157.5 25t125.5 83t72 144q7 36 7 66q0 78 -49 116q-68 53 -208 53h-379z" />
<glyph unicode="C" horiz-adv-x="1556" d="M122 412q-13 61 -12 129q0 83 19 176q27 136 88 254t145.5 206t188 150.5t219.5 93.5q109 29 223 29h15q221 0 371.5 -116.5t170.5 -332.5h-164q-24 146 -135.5 218.5t-275.5 72.5h-11q-254 0 -440 -174q-190 -178 -227 -442q-11 -56 -11 -110v-27q4 -67 19 -126.5 t50.5 -109.5t84.5 -86t121 -56t160 -20q171 0 318 80t229 238h182q-45 -103 -110 -185t-139 -135.5t-160 -89t-171 -50.5t-174 -15q-150 0 -271 51t-198 146t-105 231z" />
<glyph unicode="D" horiz-adv-x="1505" d="M66 0l305 1434h508q136 0 244 -44t177 -121.5t105.5 -180.5t36.5 -224q0 -138 -36.5 -266t-109.5 -236.5t-176 -189.5t-243.5 -126.5t-303.5 -45.5h-507zM270 156h332q141 0 266 55.5t212 148.5t137.5 218.5t50.5 263.5q0 98 -23 175t-72.5 136t-133.5 91t-199 32h-332z " />
<glyph unicode="E" horiz-adv-x="1161" d="M66 0q191 913 305 1434h833l-33 -150h-661l-98 -469h639q-9 -32 -33 -149h-639l-109 -508h684q-2 -11 -32 -158h-856z" />
<glyph unicode="F" horiz-adv-x="1130" d="M66 0l305 1434h852q-7 -27 -16.5 -76t-16.5 -76h-680l-113 -526h625l-31 -152h-624l-129 -604h-172z" />
<glyph unicode="G" horiz-adv-x="1591" d="M111 569q8 197 84 365t197.5 280.5t279 176t329.5 63.5q86 0 163 -16t145.5 -50t119 -83.5t81.5 -121.5t36 -159h-164q-10 77 -45.5 132t-92.5 85t-124 43.5t-151 13.5q-190 0 -342.5 -99t-238.5 -257.5t-103 -347.5q-3 -27 -3 -53q0 -67 17 -127q23 -83 75 -146t139 -99 t200 -36q145 0 270 50.5t224 161t147 269.5h-510l30 140h668q-22 -166 -92.5 -307.5t-179 -245t-258.5 -162.5t-324 -59t-307 71t-205 205q-66 122 -66 278q0 17 1 35z" />
<glyph unicode="H" horiz-adv-x="1480" d="M66 0l305 1434h170l-129 -605h757l129 605h172l-305 -1434h-172l144 672h-758l-143 -672h-170z" />
<glyph unicode="I" horiz-adv-x="811" d="M-53 0q11 43 28 137h248l248 1161h-231q17 91 28 136h635q-15 -59 -29 -136h-231l-248 -1161h248q-15 -81 -29 -137h-667z" />
<glyph unicode="J" horiz-adv-x="1302" d="M41 481l33 150h155l-30 -148q-11 -53 -11 -99q0 -98 52 -159q75 -90 239 -90q167 0 292 92.5t161 255.5l176 805h-356l30 146h525l-203 -953q-49 -235 -224 -368t-423 -133q-232 0 -349 136q-82 95 -82 237q0 60 15 128z" />
<glyph unicode="K" horiz-adv-x="1355" d="M66 0l305 1434h170l-142 -656q124 0 203.5 8t128.5 35q69 36 129.5 125.5t122.5 218.5q22 43 43.5 77t48.5 66.5t56 56t65 42t76 27t89 8.5t105 -10l-24 -115q-23 2 -45 2q-84 0 -139 -37q-69 -47 -128 -166q-34 -69 -58 -112.5t-59.5 -99.5t-74.5 -99t-82 -74l350 -706 l-6 -25h-172l-321 662q-96 -27 -338 -27l-133 -635h-170z" />
<glyph unicode="L" horiz-adv-x="1054" d="M66 0l305 1434h172l-273 -1280h676q-7 -27 -16.5 -76.5t-16.5 -77.5h-847z" />
<glyph unicode="M" horiz-adv-x="1693" d="M66 0l305 1436h57l420 -801l760 801h75l-305 -1436h-172l219 1034l-608 -647h-26l-334 647l-219 -1034h-172z" />
<glyph unicode="N" horiz-adv-x="1527" d="M66 0l305 1438h59l703 -1100l69 426l144 672h172l-306 -1438h-55l-702 1108l-72 -416l-147 -690h-170z" />
<glyph unicode="O" horiz-adv-x="1669" d="M115 567q0 194 73 362.5t195 283t283 180t335 65.5q172 0 310 -72t218.5 -208t80.5 -312q0 -186 -70.5 -351t-190 -283t-285 -186.5t-349.5 -68.5q-264 0 -432 160.5t-168 429.5zM281 598v-22q0 -200 119 -318q126 -124 331 -123q136 0 262.5 53t223 144.5t156 223 t63.5 280.5v14q0 209 -120 329q-124 124 -333 124q-134 0 -260 -53t-222.5 -145t-156 -224.5t-63.5 -282.5z" />
<glyph unicode="P" horiz-adv-x="1331" d="M66 2l305 1432q377 0 565 -2q81 0 149.5 -23.5t117.5 -64.5t83 -97.5t48 -120.5q12 -53 13 -113q0 -12 -1 -24q-3 -72 -25 -143q-54 -173 -218.5 -281t-367.5 -108h-403l-96 -455h-170zM362 610h406q168 0 292 117.5t124 286.5q0 119 -77 194.5t-204 75.5h-403z" />
<glyph unicode="Q" horiz-adv-x="1658" d="M111 573q8 247 128.5 450.5t325.5 321t451 117.5q261 0 424.5 -162.5t163.5 -433.5q0 -184 -76 -347t-211 -290l96 -217l-4 -24h-160l-65 139q-222 -145 -490 -145q-284 0 -438 159q-145 151 -145 405v27zM279 590v-24q0 -197 109 -312q116 -121 319 -121q183 0 346 87.5 t269 252.5t114 371v24q0 197 -110 314q-116 123 -320 123q-137 0 -265.5 -51.5t-229 -142.5t-163.5 -227t-69 -294z" />
<glyph unicode="R" horiz-adv-x="1374" d="M66 0q52 241 152.5 717.5t152.5 716.5h571q144 0 240 -62q96 -63 132 -165q25 -70 24 -152q0 -38 -5 -80q-28 -178 -145 -287.5t-287 -138.5l295 -524l-6 -25h-168l-297 530h-373l-114 -530h-172zM377 670l401 2q161 0 279.5 101.5t118.5 260.5q0 115 -69.5 184.5 t-197.5 69.5h-401q-113 -539 -131 -618z" />
<glyph unicode="S" horiz-adv-x="1320" d="M55 391h166q-4 -24 -4 -45q0 -32 9 -60q15 -46 46 -76t78 -49.5t97 -27.5t106 -8q72 2 140.5 16.5t137.5 44t119.5 84.5t67.5 129q7 31 8 57.5t-6.5 47.5t-14.5 38.5t-25.5 31t-31 23.5t-40 18.5t-43 13.5t-49.5 11t-49 8t-52 7q-11 2 -17.5 2.5t-16 2t-17.5 2.5 q-75 9 -135 22t-121 38t-102 59.5t-67 87.5t-26 120q0 95 36 174t96 132.5t140 91t166.5 54.5t177.5 17q97 0 183 -22.5t155 -68t102 -123.5q21 -50 21 -111q0 -33 -6 -68h-156q2 18 2 35q0 44 -15 78q-21 48 -67.5 75.5t-107.5 40.5t-139 13q-72 0 -142.5 -18t-133 -53.5 t-101.5 -97.5t-39 -141q0 -46 19.5 -80t47 -52.5t73.5 -31t82.5 -17.5t91.5 -11q15 -1 22 -2q50 -6 91.5 -13t86.5 -17.5t81.5 -23.5t71.5 -32t60.5 -41.5t46 -53t30 -66t9.5 -80.5t-12 -97q-19 -89 -68 -159t-112.5 -114.5t-144.5 -74t-159 -42t-161 -14.5h-20 q-71 0 -138 12q-76 14 -142.5 47t-113 81t-66.5 119q-12 42 -12 89q0 33 6 68z" />
<glyph unicode="T" horiz-adv-x="1110" d="M174 1280l33 154h1050l-32 -154h-443l-272 -1280h-166l272 1280h-442z" />
<glyph unicode="U" horiz-adv-x="1445" d="M154 487l200 947h174l-200 -945q-13 -62 -13 -113q0 -241 297 -241q169 0 302 94.5t169 259.5l201 945h166l-201 -947q-32 -157 -128.5 -273t-231.5 -174t-291 -58q-240 0 -366 135q-91 98 -91 248q0 57 13 122z" />
<glyph unicode="V" horiz-adv-x="1357" d="M213 1409l6 25h174l119 -605l92 -536h2l316 536l374 605h191l-6 -25l-897 -1415h-72z" />
<glyph unicode="W" horiz-adv-x="1970" d="M233 1407l7 27h182l53 -531l31 -610h2l604 1114h84l137 -1114h4l283 610q68 137 281 531h178l-6 -23l-742 -1419h-119l-129 1052h-2l-573 -1052h-129z" />
<glyph unicode="X" horiz-adv-x="1286" d="M-102 0l6 25l674 731l-328 653l6 25h170l129 -267l135 -301h4l267 305l239 263h197l-6 -23l-607 -655l365 -733l-4 -23h-178l-166 336l-133 299h-6l-256 -295l-312 -340h-196z" />
<glyph unicode="Y" horiz-adv-x="1282" d="M205 1411l4 23h174l139 -334l131 -350h6l281 348l281 336h194l-4 -25l-690 -821l-125 -588h-172l125 588z" />
<glyph unicode="Z" horiz-adv-x="1193" d="M-82 0l4 23l1079 1259h-755q7 28 16.5 76t16.5 76h1024l-7 -27l-1067 -1251h803q-5 -30 -17 -82.5t-16 -73.5h-1081z" />
<glyph unicode="[" horiz-adv-x="610" d="M-33 -360l406 1906h360l-28 -133h-209l-346 -1626h208l-30 -147h-361z" />
<glyph unicode="\" horiz-adv-x="970" d="M242 1434h155l387 -1432h-155z" />
<glyph unicode="]" horiz-adv-x="610" d="M-121 -360l31 147h209l346 1626h-209l29 133h360l-405 -1906h-361z" />
<glyph unicode="^" horiz-adv-x="1062" d="M180 852l477 584h117l236 -584h-138l-180 440l-358 -440h-154z" />
<glyph unicode="_" horiz-adv-x="1261" d="M-25 -166l29 139h987l-28 -139h-988z" />
<glyph unicode="`" horiz-adv-x="688" d="M483 1403l2 14l162 60l96 -271l-4 -14h-135z" />
<glyph unicode="a" horiz-adv-x="1220" d="M72 504q53 238 231.5 371t425.5 133q190 -3 375 -93l-137 -647q-7 -30 -10 -46t-4 -36.5t4 -30t16 -19t31.5 -11.5t50.5 0l-25 -121q-44 -7 -80 -7q-66 1 -104 25q-41 27 -40 90q0 27 7 60l8 35q-67 -108 -177 -164.5t-234 -56.5q-87 0 -155.5 27.5t-109.5 75.5 q-41 47 -65 113q-24 64 -25 139q0 76 17 163zM227 487q-13 -63 -14 -115q1 -84 35 -144q54 -96 205 -95q149 0 260.5 103t148.5 268l68 315q-103 53 -240 53q-165 0 -294.5 -106t-168.5 -279z" />
<glyph unicode="b" horiz-adv-x="1179" d="M37 66l301 1419h149l-137 -649q150 170 379 170q87 0 160 -31.5t125 -95.5q52 -65 66 -163q5 -34 5 -71q0 -73 -18 -160q-60 -255 -233 -383.5t-424 -128.5q-189 0 -373 93zM215 166q126 -55 231 -55q156 0 285 99t172 273q19 83 19 148q0 85 -32 139q-56 96 -224 96 q-76 0 -143 -34t-114 -90.5t-79 -122.5t-47 -136z" />
<glyph unicode="c" horiz-adv-x="1159" d="M59 446q14 111 59 205.5t109.5 160.5t144.5 112t166 68q78 20 158 20h15q156 0 265 -86.5t116 -239.5h-148q-13 93 -87.5 139.5t-176.5 46.5q-97 0 -190.5 -44t-166 -133.5t-96.5 -207.5q-11 -48 -11 -92q0 -47 12 -87q23 -80 91.5 -130t172.5 -53q52 0 102 11t99.5 34 t94 64.5t76.5 97.5h170q-53 -119 -147 -199.5t-197 -114.5t-215 -34q-195 0 -317 131q-102 110 -103 267q0 31 4 64z" />
<glyph unicode="d" horiz-adv-x="1236" d="M61 383q0 120 40 235t111.5 206t181 146.5t237.5 55.5q122 0 209 -50.5t104 -144.5l143 676h150l-264 -1239q-8 -36 -11.5 -54.5t-1.5 -40.5t12 -31t32.5 -14.5t58.5 -2.5l-27 -121q-44 -7 -80 -7q-65 1 -101 25q-39 27 -39 89q0 27 7 61l6 29q-65 -108 -170.5 -161.5 t-230.5 -53.5q-176 0 -271.5 113t-95.5 284zM226 348q10 -60 34.5 -108t73.5 -77.5t115 -29.5q121 0 220 64t155 171t59 234q0 128 -59 207.5t-181 79.5q-91 0 -167.5 -36.5t-127 -97.5t-81.5 -134.5t-40 -153.5q-6 -31 -6 -61q0 -29 5 -58z" />
<glyph unicode="e" horiz-adv-x="1097" d="M84 557q64 220 225 335t377 120q63 0 119.5 -12t106 -37t82 -64t46.5 -93q6 -25 6 -54q0 -32 -8 -68q-18 -77 -65.5 -135.5t-112 -91t-132.5 -48.5t-138 -16q-108 0 -208.5 24.5t-160.5 76.5q-16 -65 -16 -120q0 -102 56 -165q86 -98 282 -98q141 0 344 84l-21 -140 q-155 -69 -358 -73h-13q-256 0 -369 154q-71 96 -71 232q0 87 29 189zM262 618q48 -48 140 -72t186 -24q62 0 119 14.5t108.5 54t69.5 99.5q7 23 7 44q0 14 -4 28q-9 32 -31 54.5t-55.5 37t-70 21t-74.5 6.5q-132 0 -236.5 -67.5t-158.5 -195.5z" />
<glyph unicode="f" horiz-adv-x="804" d="M-215 -512l29 125q39 -7 71.5 -7.5t58.5 6t47.5 18t38.5 31t30 41.5t24.5 52.5t19.5 60.5t17 70l207 971h-232l27 123h233l35 166q28 135 91.5 222.5t148.5 121.5q73 29 156 29h27q98 -6 202 -50l-47 -118q-70 32 -134 40q-20 3 -40 3q-42 0 -81 -13 q-58 -17 -100.5 -74.5t-62.5 -150.5l-37 -176h358l-26 -123h-359l-206 -973q-51 -239 -168 -337q-83 -70 -214 -70q-53 0 -114 12z" />
<glyph unicode="g" horiz-adv-x="1179" d="M-49 -428l49 129q73 -47 162 -73q79 -23 161 -23h19q93 3 174.5 36t145 112.5t88.5 197.5l49 231q-123 -205 -391 -205q-78 0 -141.5 27t-105 73t-68 105.5t-34.5 125.5q-4 32 -4 65t4 67q24 181 120 312t238 195q136 61 299 61h15q185 -3 371 -93l-205 -964 q-30 -142 -98 -246t-160.5 -160t-204.5 -73q-45 -8 -92 -8q-70 0 -144 16q-123 26 -247 92zM218 372q0 -50 16.5 -96.5t43 -82t70 -57t98.5 -21.5q76 0 147 34.5t123 90t89 122.5t53 136l74 317q-113 55 -240 55q-181 0 -312 -106t-155 -291q-8 -48 -8 -95q0 -3 1 -6z" />
<glyph unicode="h" horiz-adv-x="1208" d="M27 -4l319 1499h162l-139 -645q55 71 158 112.5t210 41.5q87 -2 150.5 -29t99 -72t51.5 -107q14 -54 14 -113v-19q-2 -68 -20 -146l-55 -268q-12 -49 -12 -80t26 -43q16 -7 44 -7q19 0 44 3l-24 -123q-57 -9 -101 -9q-46 0 -76 10q-60 21 -74 81q-5 22 -5 50q0 47 14 108 l59 278q17 81 17 142q-1 73 -25 119q-46 83 -196 83q-130 0 -230 -83.5t-129 -217.5l-119 -565h-163z" />
<glyph unicode="i" horiz-adv-x="475" d="M33 0l209 979h159l-208 -979h-160zM289 1292q0 56 38.5 88.5t86.5 32.5q35 0 59.5 -20.5t24.5 -59.5q0 -56 -39 -88.5t-88 -32.5q-35 0 -58.5 20.5t-23.5 59.5z" />
<glyph unicode="j" horiz-adv-x="475" d="M-328 -512l31 125q39 -7 71.5 -7.5t58.5 6t47.5 18t38.5 31t30 41.5t24.5 52.5t19.5 60.5t17 70l234 1098h157l-233 -1100q-51 -239 -168 -337q-83 -70 -214 -70q-53 0 -114 12zM289 1292q0 56 38.5 88.5t86.5 32.5q37 0 60.5 -20.5t23.5 -59.5q0 -56 -39 -88.5 t-88 -32.5q-35 0 -58.5 20.5t-23.5 59.5z" />
<glyph unicode="k" horiz-adv-x="1085" d="M29 0l317 1497h162l-195 -913h131q191 0 313 109t165 296h153q-72 -374 -387 -487l227 -484l-4 -18h-157l-207 461q-59 -12 -131 -12h-129l-97 -449h-161z" />
<glyph unicode="l" horiz-adv-x="557" d="M96 356l244 1145h162l-244 -1145q-16 -70 -17 -118q0 -55 22 -83q29 -38 117 -37q34 0 77 5l-23 -127q-71 -11 -128 -11q-128 -1 -182 57q-48 51 -48 157q0 67 20 157z" />
<glyph unicode="m" horiz-adv-x="1851" d="M66 0l147 690q6 28 9 43t7 36.5t4.5 32t0.5 25.5t-3.5 21.5t-9 15.5t-14.5 12t-21.5 5.5t-28.5 2t-36 -2.5l24 110q52 14 94 14q61 -1 102 -29q53 -36 53 -102q0 -20 -5 -43q85 96 176.5 137.5t210.5 41.5q120 0 178.5 -61t63.5 -163q69 112 182 169t242 57 q76 0 130.5 -23t83.5 -61q30 -38 42 -94q9 -43 9 -89q-1 -13 -1 -27q-4 -60 -18 -132l-70 -328q-12 -53 -14 -86.5t26 -45.5q16 -8 48 -8q20 0 46 3l-26 -119q-64 -13 -112 -13q-74 0 -111 31q-38 32 -38 107q0 44 13 102l76 357q12 61 12 110q0 181 -174 181 q-123 0 -213.5 -84t-120.5 -220l-123 -573h-162l123 573q13 63 13 115q0 20 -2 38q-7 66 -54 107t-129 41q-127 0 -223 -82.5t-125 -218.5l-123 -573h-159z" />
<glyph unicode="n" d="M57 0l150 707q23 104 23 133q0 44 -42 50q-10 2 -24 2q-17 0 -41 -3l20 104q52 12 94 12q62 -1 100 -27q47 -32 46 -100q0 -26 -6 -57q64 97 167.5 142t223.5 45q96 0 165.5 -32t104.5 -88q34 -56 46 -133q4 -27 4 -56q0 -53 -13 -111l-78 -371q-6 -31 -6 -52 q1 -29 11 -41q12 -14 50 -15q20 0 46 4l-25 -113q-55 -10 -98 -10q-75 0 -113 29q-39 30 -39 104q0 39 11 90l79 375q9 42 9 79q0 77 -42 131q-62 78 -184 79q-125 0 -225 -82t-129 -215l-123 -580h-162z" />
<glyph unicode="o" horiz-adv-x="1230" d="M61 393q0 118 38 220t101.5 174t146 123t172 75.5t179.5 24.5q115 0 211 -45t158.5 -140t62.5 -225q0 -117 -34.5 -217.5t-95 -173t-141.5 -124t-175 -76.5t-195 -25q-117 0 -212 44.5t-155.5 139t-60.5 225.5zM217 416q0 -142 82 -218.5t207 -76.5q66 0 129.5 16.5 t123 52.5t106 88t76 128.5t34.5 168.5q1 10 1 20q0 123 -80 199q-86 82 -210 83q-81 0 -162.5 -30t-150.5 -86t-112.5 -146t-43.5 -199z" />
<glyph unicode="p" horiz-adv-x="1222" d="M-49 -504l266 1256q1 4 2 10q7 38 9.5 66t-20.5 43q-19 13 -60 13q-8 0 -17 -1l23 116q44 7 79 7q66 0 104 -25q41 -28 41 -91q0 -27 -7 -59l-6 -28q66 97 161 150t207 61q15 1 30 1q74 0 135 -21q72 -25 116 -71.5t72.5 -110.5t33.5 -138q1 -31 1 -64q0 -43 -3 -88 q-17 -148 -92.5 -273t-200 -201.5t-268.5 -76.5q-248 0 -311 205l-146 -680h-149zM309 397q0 -127 59.5 -204.5t180.5 -77.5q87 0 163 37t127.5 97.5t84 135.5t41.5 154q3 29 3 55q0 117 -50 188q-62 86 -209 86q-114 -3 -207 -71.5t-143 -175t-50 -224.5z" />
<glyph unicode="q" horiz-adv-x="1187" d="M58 347q0 74 12 151q32 163 130 281t236 175q130 54 281 54h16q188 -3 377 -93l-303 -1419h-150l148 680q-82 -111 -173 -155t-218 -44q-87 0 -156 30t-109.5 81t-65.5 118t-25 141zM233 498q-14 -67 -14 -123q0 -94 39 -157q63 -103 205 -103q77 0 146 34t118.5 90 t83.5 122.5t49 136.5l68 317q-113 55 -238 55q-169 0 -293 -97t-164 -275z" />
<glyph unicode="r" horiz-adv-x="882" d="M57 0q41 189 80 378t80 378q8 34 10.5 50.5t1 38t-11.5 30t-32 14t-58 2.5l23 106q58 10 102 10q56 0 90 -16q48 -22 48 -94q0 -19 -3 -41q108 164 334 164q129 0 215 -74l-68 -135q-89 66 -194 66q-110 0 -207 -74t-121 -189l-131 -614h-158z" />
<glyph unicode="s" horiz-adv-x="1036" d="M12 279h152l-2 -24q0 -29 10 -51q12 -32 34.5 -51t58 -30.5t70.5 -15t79 -3.5q72 0 137 17t116 57.5t64 97.5q4 19 4 35t-3.5 29.5t-12.5 24.5t-20 20t-28.5 17t-35.5 13.5t-42.5 11.5t-48.5 10t-55 9q-60 8 -105 17t-96 27t-83.5 42t-54 62.5t-21.5 87.5q0 66 27.5 121 t73.5 92t108 63t129 38t137 12q107 0 193 -30.5t132 -96.5q32 -45 32 -102q0 -26 -7 -54h-149q2 12 2 23q0 64 -55 96q-64 38 -174 37q-73 0 -137.5 -18t-111 -60.5t-46.5 -102.5q0 -56 56 -82t191 -47q34 -5 60.5 -9t58.5 -10.5t56.5 -14t51.5 -18t46.5 -23.5t38 -29.5 t29.5 -37t17.5 -45t5.5 -54.5t-9 -64q-16 -74 -63 -130t-116 -90t-149 -51.5t-170 -19.5q-66 0 -124 10t-109 32.5t-86 56.5q-34 36 -50 88q-10 32 -10 69q0 23 4 48z" />
<glyph unicode="t" horiz-adv-x="841" d="M96 877l23 106h221l82 307h133l-66 -307h363l-25 -117h-362l-109 -483q-16 -62 -16 -109q0 -18 2 -34q8 -56 34.5 -88t76.5 -40q23 -4 48 -4q29 0 63 6q62 10 141 36l-9 -132q-136 -41 -240 -42h-5q-101 0 -167 42q-68 42 -90 132q-9 38 -10 86q0 64 17 143l104 487z" />
<glyph unicode="u" horiz-adv-x="1196" d="M88 242q-1 18 -1 36q0 63 17 134l123 575h162l-123 -575q-13 -63 -13 -112q0 -185 189 -185q130 0 238 83.5t137 215.5l123 573h158l-154 -723q-15 -67 -15 -103q0 -23 6 -33q12 -21 61 -21q15 0 32 2l-22 -111q-36 -6 -65.5 -9t-58 -2t-49.5 7t-37.5 18t-24.5 31 t-7.5 47t10.5 64q-74 -96 -169 -133t-220 -37q-96 0 -162.5 32.5t-97.5 90t-37 135.5z" />
<glyph unicode="v" horiz-adv-x="1161" d="M94 891l23 106q52 9 94 10q77 1 117 -31q41 -31 40 -106q0 -38 -10 -86l-79 -372q-11 -46 -11 -86q0 -72 35 -124q55 -82 193 -81q90 0 161 34.5t115 91.5t73.5 133.5t42.5 156.5q12 79 14 165v42q0 60 -4 114q-6 70 -17 131h157q13 -90 18 -178q2 -38 2 -79 q0 -53 -4 -110q-6 -101 -27 -189t-65.5 -171t-108 -142t-162 -94.5t-222.5 -35.5q-197 0 -297 114q-69 79 -68 197q0 52 13 111l57 266q4 18 11 52q17 53 17 90q0 21 -5 36q-12 37 -75 37q-13 0 -28 -2z" />
<glyph unicode="w" horiz-adv-x="1738" d="M92 887l23 110q53 9 95 9q76 0 116 -30q41 -31 41 -105q0 -38 -11 -87l-80 -381q-11 -47 -10 -87q0 -69 32 -118q50 -77 165 -77t198 76.5t109 205.5l123 584h154l-125 -584q-11 -47 -11 -87q0 -68 32 -117q51 -78 167 -78q82 0 146 35t104 92.5t66.5 135t37 158 t12.5 165.5q1 24 1 47q0 57 -4 107q-5 69 -15 128h152q12 -75 18 -155q3 -49 3 -104q1 -34 -1 -72q-4 -96 -19 -183.5t-49.5 -173t-86 -149.5t-133.5 -107t-187 -51q-36 -4 -69 -4q-28 0 -55 3q-58 6 -103 25t-78.5 59t-50.5 99q-75 -105 -162.5 -146.5t-214.5 -41.5 q-178 0 -262 112q-58 78 -58 192q0 50 11 107l80 373q9 42 9 67t-8 35q-13 15 -63 15q-17 0 -39 -2z" />
<glyph unicode="x" horiz-adv-x="1003" d="M-94 0l4 18l487 506l-229 447l2 16h160l92 -178l84 -193h4l178 201l164 170h166l-2 -18l-434 -453l262 -498l-4 -18h-148l-106 203l-109 223h-4l-194 -217l-205 -209h-168z" />
<glyph unicode="y" horiz-adv-x="1216" d="M-27 -428l41 135q72 -47 161 -73q83 -25 171 -25h13q95 2 179 34t149 111t91 197l49 217q-51 -91 -153 -143t-215 -52h-18q-80 0 -139 24q-67 27 -104.5 73.5t-55.5 111.5q-17 63 -17 129v7q1 71 16 149l60 278q10 41 10 67q0 25 -9 36q-13 16 -57 16q-22 0 -53 -4 q10 54 27 125q58 12 102 12q75 0 113 -33q41 -35 41 -111q0 -38 -10 -85l-64 -299q-17 -81 -17 -143q0 -76 26 -124q46 -85 186 -85q83 0 154.5 40t119.5 105t79.5 136.5t47.5 146.5l94 442h158l-221 -1036q-32 -146 -109.5 -253t-179.5 -160t-219 -68q-41 -5 -83 -5 q-74 0 -149 17q-116 27 -215 90z" />
<glyph unicode="z" horiz-adv-x="937" d="M-66 0l5 20l735 828h-529q27 125 29 139h776l-4 -22l-725 -824h547l-31 -141h-803z" />
<glyph unicode="{" horiz-adv-x="604" d="M39.5 -166q1.5 41 11.5 94l86 414q40 204 -67 215l26 121q122 19 158 213l86 397q14 71 40 121.5t58 81t79.5 48t95.5 23t116 5.5l-27 -121q-96 2 -144.5 -33t-68.5 -129l-86 -405q-11 -48 -20.5 -79.5t-28 -71t-47 -67t-67.5 -43.5q27 -13 43.5 -35.5t22.5 -46.5t5 -58 t-5.5 -60.5t-12.5 -63.5l-90 -420q-20 -93 15 -127.5t130 -29.5l-29 -131q-50 0 -85.5 2.5t-70 10t-56 20.5t-39 34t-24 50.5t-5 70.5z" />
<glyph unicode="|" horiz-adv-x="495" d="M14 -164q28 138 170 801t170 801h148l-340 -1602h-148z" />
<glyph unicode="}" horiz-adv-x="604" d="M-117 -354l29 131q92 -5 141.5 29.5t69.5 127.5l90 420q14 62 30 107t52.5 91t87.5 66q-107 53 -59 261l86 405q20 94 -14 129t-130 33l25 121q48 0 83.5 -2.5t69.5 -10.5t56.5 -21t40.5 -34t25 -50t6 -69.5t-11 -91.5l-82 -397q-6 -32 -9 -54t-2.5 -52.5t7.5 -50 t25 -35.5t47 -21l-25 -121q-35 -4 -64 -26t-48 -55.5t-30 -66t-18 -67.5l-90 -414q-16 -74 -41.5 -125t-56.5 -81.5t-78 -47.5t-94.5 -22.5t-118.5 -5.5z" />
<glyph unicode="~" horiz-adv-x="1249" d="M133 647q66 111 161.5 164t194 44t185.5 -71q44 -33 80.5 -53.5t79.5 -30.5t80.5 -2t77 39.5t75.5 87.5q19 -9 49.5 -25.5t50.5 -25.5q-57 -94 -124.5 -146t-138 -60.5t-140 12t-141.5 69.5q-52 34 -98.5 51t-99 18.5t-105 -30t-99.5 -96.5z" />
<glyph unicode="&#xa2;" d="M96 395q0 84 20 161t55.5 137t84 113t105 89t119.5 63.5t127.5 38.5t128.5 14t122 -12l86 154h76l-96 -172q194 -79 209 -299l-154 -6q-19 110 -133 162l-391 -701q59 -18 126.5 -11.5t129.5 29.5t119 73t94 118l151 -6q-33 -72 -81.5 -132t-105 -102t-121 -71 t-130.5 -42t-131.5 -11.5t-126.5 18.5l-90 -162h-80l104 187q-100 44 -158.5 140.5t-58.5 229.5zM260 426q0 -89 36.5 -155t98.5 -103l385 694q-82 15 -172.5 -8t-168 -76.5t-128.5 -146t-51 -205.5z" />
<glyph unicode="&#xa3;" horiz-adv-x="1343" d="M-12 0l4 16q116 94 178 183t98 219q24 95 27 237h-182l26 125h164q2 131 38.5 242.5t97 189.5t140.5 133t168.5 81t180.5 26q203 3 397 -123l-84 -123q-146 111 -352 101q-69 -3 -131 -24.5t-116.5 -64.5t-93.5 -103.5t-60.5 -146.5t-18.5 -188h496l-27 -125h-477 q-4 -150 -41 -256q-38 -119 -137 -229q56 22 117 25t118.5 -8t111.5 -25t114.5 -26.5t107.5 -12.5q81 0 131.5 48.5t73.5 170.5h137q-50 -360 -344 -360q-48 0 -122.5 13.5t-144 27.5t-145 23t-150 -1.5t-134.5 -44.5h-166z" />
<glyph unicode="&#xa5;" horiz-adv-x="1157" d="M139 295l25 117h291l28 129h-290l22 114h252l-219 756l4 23h174l176 -684l463 684h188l-4 -23l-544 -756h253l-22 -114h-291l-29 -129h291l-24 -117h-291l-64 -295h-161l63 295h-291z" />
<glyph unicode="&#xa8;" horiz-adv-x="1038" d="M457 1341q0 48 37 79.5t86 31.5q37 0 60.5 -21.5t23.5 -56.5q0 -46 -37 -77t-88 -31q-35 0 -58.5 21.5t-23.5 53.5zM938 1341q0 48 36 79.5t87 31.5q37 0 59.5 -21.5t22.5 -56.5q0 -46 -37 -77t-86 -31q-36 0 -59 21t-23 54z" />
<glyph unicode="&#xa9;" horiz-adv-x="1632" d="M129 567q0 160 51 298.5t137 236.5t197.5 168.5t233 104.5t243.5 34q114 0 215 -36t179 -104t123.5 -175.5t45.5 -241.5q0 -159 -51 -297.5t-136.5 -236.5t-196.5 -169t-232.5 -105t-243.5 -34q-91 0 -174.5 22t-154.5 68t-123.5 111t-82.5 156.5t-30 199.5zM250 588 q-4 -114 31.5 -205t99 -147.5t145.5 -86.5t176 -30q100 0 201.5 29.5t195 89.5t167 143.5t118.5 201t48 251.5q2 90 -20.5 166.5t-63.5 131.5t-98 94t-124.5 58t-142.5 19q-101 0 -202.5 -28.5t-196 -88t-168 -142.5t-118.5 -201.5t-48 -254.5zM506 641q0 95 37.5 174.5 t98.5 130.5t136.5 79t153.5 28q106 0 177 -59t75 -169l-97 -8q-13 75 -61.5 109.5t-116.5 34.5q-71 0 -137.5 -35.5t-112 -106t-45.5 -160.5t44.5 -142t132.5 -52q72 0 144.5 38t111.5 109h110q-37 -84 -101.5 -141t-133.5 -80.5t-142 -23.5q-115 0 -194.5 72.5t-79.5 201.5 z" />
<glyph unicode="&#xab;" horiz-adv-x="960" d="M139 709l373 456l100 -37l-303 -419l125 -414l-115 -41zM473 709l373 456l100 -37l-303 -419l125 -414l-115 -41z" />
<glyph unicode="&#xad;" horiz-adv-x="948" d="M143 612l31 142h666l-31 -142h-666z" />
<glyph unicode="&#xae;" horiz-adv-x="1632" d="M131 573q0 158 48 296t130 236.5t189 169.5t225.5 105.5t239.5 34.5q92 0 178 -22t161.5 -67.5t132 -110.5t89 -157t32.5 -200q0 -159 -51 -297.5t-136.5 -236.5t-196.5 -169t-232.5 -105t-243.5 -34q-91 0 -174.5 22t-154.5 68t-123.5 111t-82.5 156.5t-30 199.5z M254 594q-4 -231 121.5 -354t337.5 -115q83 3 167.5 25.5t164.5 63t150 103t123 139.5t84 178t32 214q4 230 -129 348t-359 113q-100 -2 -197.5 -31.5t-186 -89.5t-156.5 -143t-109 -200t-43 -251zM551 381l141 670h275q89 0 142.5 -47.5t53.5 -131.5q0 -90 -58 -157 t-149 -84l129 -234l-2 -16h-108l-125 235h-145l-50 -235h-104zM723 702h162q73 0 122.5 43.5t49.5 108.5q0 49 -22.5 78t-84.5 29h-172z" />
<glyph unicode="&#xb4;" horiz-adv-x="620" d="M416 1180l4 14l211 270l135 -59l-4 -14l-211 -211h-135z" />
<glyph unicode="&#xb8;" horiz-adv-x="802" d="M111 -397l28 98q28 -35 86.5 -53t119.5 -5t87 62q26 50 4.5 82.5t-64 47t-85.5 9.5l86 179h121l-62 -129q95 -4 130 -71t-11 -149q-31 -59 -91 -93.5t-123.5 -40t-125 11t-100.5 51.5z" />
<glyph unicode="&#xbb;" horiz-adv-x="958" d="M68 295l301 414l-123 419l112 37l181 -456l-373 -455zM401 295l301 414l-122 419l112 37l180 -456l-372 -455z" />
<glyph unicode="&#x2c6;" horiz-adv-x="1011" d="M389 1153l4 16l342 271h162l223 -273l-2 -14h-155l-162 186l-240 -186h-172z" />
<glyph unicode="&#x2da;" horiz-adv-x="776" d="M416 1217q0 60 25.5 110t66.5 80t90.5 46.5t99.5 16.5q80 0 134.5 -45t54.5 -127q0 -79 -43.5 -138.5t-106.5 -87.5t-131 -28q-82 0 -136 45t-54 128zM514 1235q0 -49 34 -75.5t81 -24.5q61 0 110 40.5t49 104.5q0 47 -32.5 73.5t-79.5 26.5q-62 0 -112 -39.5t-50 -105.5 z" />
<glyph unicode="&#x2dc;" horiz-adv-x="860" d="M401 1298q77 115 175 146.5t198 -35.5q40 -27 73 -34.5t69.5 10t72.5 65.5l80 -45q-47 -71 -107 -113t-125.5 -46.5t-127.5 42.5q-42 29 -77.5 38t-75 -8t-77.5 -65q-51 28 -78 45z" />
<glyph unicode="&#x401;" horiz-adv-x="1161" d="M66 0q191 913 305 1434h833l-33 -150h-661l-98 -469h639q-9 -32 -33 -149h-639l-109 -508h684q-2 -11 -32 -158h-856zM496 1645q0 48 36.5 79t85.5 31q37 0 60.5 -21.5t23.5 -56.5q0 -46 -36.5 -77t-87.5 -31q-35 0 -58.5 22t-23.5 54zM977 1645q0 48 36 79t87 31 q37 0 59.5 -21.5t22.5 -56.5q0 -46 -37 -77t-86 -31q-36 0 -59 21.5t-23 54.5z" />
<glyph unicode="&#x402;" horiz-adv-x="1503" d="M176 1284l33 150h1057l-33 -150h-481l-103 -485q66 92 180 138t244 46q199 0 287 -119t47 -313l-68 -315q-52 -239 -167.5 -333t-327.5 -55l33 123q39 -7 71 -7.5t58.5 5.5t47 16.5t37.5 29t29.5 39.5t23.5 51.5t19 61t17 71.5l67 313q29 137 -41.5 215t-208.5 78 q-137 0 -254 -85.5t-149 -213.5l-115 -545h-166l273 1284h-410z" />
<glyph unicode="&#x403;" horiz-adv-x="1060" d="M66 -2l305 1434h835l-30 -146h-666l-274 -1288h-170zM702 1577l5 14l211 271l135 -60l-4 -14l-211 -211h-136z" />
<glyph unicode="&#x404;" horiz-adv-x="1558" d="M115 571q0 152 48 291t133.5 246t197.5 186t245.5 120t272.5 40q105 -1 198 -30t167 -84t121 -142t56 -197h-161q-37 157 -134.5 226t-279.5 69q-152 1 -290 -62.5t-238 -179.5t-140 -263h643l-32 -150h-641q-29 -222 98 -363t356 -141q166 0 313.5 83.5t233.5 234.5h176 q-72 -154 -198 -263t-268 -159.5t-290 -50.5q-261 0 -424 161t-163 428z" />
<glyph unicode="&#x405;" horiz-adv-x="1320" d="M55 391h166q-10 -59 5 -105.5t46 -76t78 -49t97 -27.5t106 -8q72 2 140.5 16.5t137.5 44t119.5 84.5t67.5 129q7 31 8 57.5t-6.5 47.5t-14.5 38.5t-25.5 31t-31 23.5t-40 18.5t-43 13.5t-49.5 11t-49 8t-52 7q-11 2 -17.5 2.5t-16 2t-17.5 2.5q-75 9 -135 22t-121 38 t-102 59.5t-67 87.5t-26 120q0 95 36 174t96 132.5t140 91t166.5 54.5t177.5 17q97 0 183 -22.5t155 -68t102 -123.5t15 -179h-156q8 65 -13 113t-67.5 75.5t-107.5 40.5t-139 13q-72 0 -142.5 -18t-133 -53.5t-101.5 -97.5t-39 -141q0 -46 19.5 -80t47 -52.5t73.5 -31 t82.5 -17.5t91.5 -11q15 -1 22 -2q50 -6 91.5 -13t86.5 -17.5t81.5 -23.5t71.5 -32t60.5 -41.5t46 -53t30 -66t9.5 -80.5t-12 -97q-19 -89 -68 -159t-112.5 -114.5t-144.5 -74t-159 -42t-161 -14.5q-82 -2 -158 12t-142.5 47t-113 81t-66.5 119t-6 157z" />
<glyph unicode="&#x406;" horiz-adv-x="811" d="M-53 0q11 43 28 137h248l248 1161h-231q17 91 28 136h635q-15 -59 -29 -136h-231l-248 -1161h248q-15 -81 -29 -137h-667z" />
<glyph unicode="&#x407;" horiz-adv-x="811" d="M-53 0q11 43 28 137h248l248 1161h-231q17 91 28 136h635q-15 -59 -29 -136h-231l-248 -1161h248q-15 -81 -29 -137h-667zM295 1628q0 48 37 79.5t86 31.5q37 0 60.5 -21.5t23.5 -56.5q0 -46 -37 -77.5t-88 -31.5q-35 0 -58.5 22t-23.5 54zM776 1628q0 48 36 79.5 t87 31.5q37 0 59.5 -21.5t22.5 -56.5q0 -46 -37 -77.5t-86 -31.5q-36 0 -59 21.5t-23 54.5z" />
<glyph unicode="&#x408;" horiz-adv-x="1302" d="M41 481l33 150h155l-30 -148q-35 -168 40.5 -258t239.5 -90q167 0 292 92.5t161 255.5l176 805h-356l30 146h525l-203 -953q-49 -235 -224 -368t-423 -133q-232 0 -348.5 135.5t-67.5 365.5z" />
<glyph unicode="&#x409;" horiz-adv-x="2023" d="M-88 4l29 127q57 -6 98 -4t74 23t55.5 46.5t42 66.5t35 84t33.5 98q1 6 2 9t3 8t3 9l311 963h733l-104 -492h311q192 0 299 -107.5t109 -275.5q1 -128 -48 -235t-133.5 -177t-195 -108.5t-232.5 -38.5h-471l271 1280h-424q-21 -66 -114 -363t-144 -456 q-23 -72 -41.5 -122t-42.5 -102.5t-47.5 -87t-54 -67t-65.5 -50t-78.5 -28.5t-96.5 -10.5t-117 10.5zM1059 152h284q191 0 314 108t123 281q0 127 -72.5 188.5t-220.5 61.5h-291z" />
<glyph unicode="&#x40a;" horiz-adv-x="2033" d="M66 0l305 1434h170l-117 -551h629l116 551h168l-114 -541h311q195 0 306 -93.5t114 -254.5q2 -128 -44 -231.5t-128.5 -172t-195.5 -105t-245 -36.5h-477l154 725h-629l-153 -725h-170zM1065 152h309q174 0 294 101t120 259q0 109 -77 168t-212 59h-309z" />
<glyph unicode="&#x40b;" horiz-adv-x="1511" d="M176 1286l31 148h1057l-31 -148h-481l-105 -489q73 96 185 142t241 46q199 -1 287 -120.5t47 -313.5l-117 -551h-160l117 551q29 137 -41.5 216t-208.5 79q-135 0 -254 -90t-151 -219l-113 -537h-166l273 1286h-410z" />
<glyph unicode="&#x40c;" horiz-adv-x="1355" d="M66 0l305 1434h170l-142 -656q124 0 203.5 8t128.5 35q69 36 129.5 125.5t122.5 218.5q22 43 43.5 77t48.5 66.5t56 56t65 42t76 27t89 8.5t105 -10l-24 -115q-115 12 -184 -35t-128 -166q-34 -69 -58 -112.5t-59.5 -99.5t-74.5 -99t-82 -74l350 -706l-6 -25h-172 l-321 662q-96 -27 -338 -27l-133 -635h-170zM750 1577l4 14l211 271l135 -60l-4 -14l-211 -211h-135z" />
<glyph unicode="&#x40e;" horiz-adv-x="1259" d="M-2 16l53 140q182 -100 338 129l127 178l-332 950l4 21h174l261 -797h6l577 797h185l-5 -17l-833 -1163q-51 -75 -93.5 -125t-95 -91t-105.5 -56t-119.5 -8t-141.5 42zM510 1810l119 15q-5 -75 33.5 -119t115.5 -47q80 0 151.5 43.5t102.5 122.5q84 -10 109 -15 q-42 -135 -140 -208.5t-233 -73.5q-123 0 -198 75.5t-60 206.5z" />
<glyph unicode="&#x40f;" horiz-adv-x="1480" d="M66 0l305 1434h172l-273 -1276h758l272 1276h170l-305 -1434h-460l-62 -291h-164l62 291h-475z" />
<glyph unicode="&#x410;" horiz-adv-x="1435" d="M-111 0l5 23l968 1417h78l360 -1417l-4 -23h-170l-90 354h-723l-239 -354h-185zM401 502h609l-160 669z" />
<glyph unicode="&#x411;" horiz-adv-x="1345" d="M66 0q51 240 152.5 717.5t152.5 716.5h950l-33 -152h-782l-88 -416h405q207 0 313.5 -92t106.5 -250q0 -107 -40.5 -201.5t-115.5 -166.5t-191 -114t-257 -42h-573zM266 152h404q162 0 262.5 76t128.5 208q27 124 -41.5 203.5t-228.5 79.5h-404z" />
<glyph unicode="&#x412;" horiz-adv-x="1370" d="M66 0l305 1434h559q175 0 277 -77t102 -231q0 -134 -73.5 -240t-193.5 -149q195 -62 195 -260q0 -218 -155.5 -347.5t-395.5 -129.5h-620zM266 147h439q135 0 228.5 61.5t121.5 186.5q14 71 0.5 121.5t-54.5 82t-97.5 46t-129.5 14.5h-399zM406 803h378q86 0 157.5 25 t125.5 83t72 144q26 129 -42 182t-208 53h-379z" />
<glyph unicode="&#x413;" horiz-adv-x="1060" d="M66 -2l305 1434h835l-30 -146h-666l-274 -1288h-170z" />
<glyph unicode="&#x414;" horiz-adv-x="1484" d="M-127 -233l82 380h45q54 0 92.5 15t65.5 48.5t44.5 71.5t37.5 99l346 1053h841l-272 -1287h156l-82 -380h-148l49 233h-1058l-49 -233h-150zM264 145h727l244 1139h-530l-295 -911q-57 -178 -146 -228z" />
<glyph unicode="&#x415;" horiz-adv-x="1161" d="M66 0q191 913 305 1434h833l-33 -150h-661l-98 -469h639q-9 -32 -33 -149h-639l-109 -508h684q-2 -11 -32 -158h-856z" />
<glyph unicode="&#x416;" horiz-adv-x="1988" d="M-90 0l6 25q122 134 350 378.5t305 327.5q-55 58 -76.5 151t-33.5 236q-9 113 -62 158.5t-172 30.5l27 125q182 29 268.5 -34t95.5 -233q3 -54 7.5 -92.5t15.5 -93t33.5 -94t54.5 -60.5q44 -30 94 -39.5t127 -9.5l140 658h172l-140 -658q75 0 130.5 9.5t113.5 39.5 q40 21 77.5 59.5t72.5 96.5t52 90.5t46 93.5q81 169 197 232.5t286 34.5l-26 -125q-113 15 -185 -30.5t-131 -158.5q-92 -178 -136 -243q-64 -94 -134 -144q157 -312 352 -706l-6 -25h-166q-53 114 -166.5 335t-163.5 327q-101 -39 -245 -39l-134 -623h-172l134 623 q-139 0 -218 39q-88 -97 -188 -208t-220 -245t-188 -209h-194z" />
<glyph unicode="&#x417;" horiz-adv-x="1204" d="M33.5 224.5q-19.5 85.5 3.5 197.5h151q-16 -70 -7 -122t32.5 -87.5t64.5 -57.5t88.5 -32t104.5 -10q114 0 210.5 38t159 117.5t62.5 186.5q0 112 -89 178.5t-218 66.5h-98l30 142h97q85 0 163 32t131.5 98t53.5 152q0 97 -68.5 150t-173.5 53q-79 0 -148.5 -21t-126 -73 t-73.5 -129h-154q18 93 70 165t125.5 114.5t157.5 63.5t174 21q170 0 274.5 -88t104.5 -233q0 -131 -79 -230.5t-202 -146.5q97 -34 154.5 -111.5t60.5 -181.5q3 -130 -45 -230t-135 -160.5t-200.5 -91t-248.5 -30.5q-108 0 -192.5 29.5t-139.5 87t-74.5 143z" />
<glyph unicode="&#x418;" horiz-adv-x="1527" d="M66 -2l305 1438h172l-144 -672l-104 -412l1163 1086h60l-306 -1438h-170l148 690l98 393l-1167 -1085h-55z" />
<glyph unicode="&#x419;" horiz-adv-x="1527" d="M66 -2h55l1167 1085l-98 -393l-148 -690h170l306 1438h-60l-1163 -1086l104 412l144 672h-172zM733 1810l119 15q-5 -75 33.5 -119t115.5 -47q80 0 151.5 43.5t102.5 122.5q84 -10 109 -15q-42 -135 -140 -208.5t-233 -73.5q-123 0 -198 75.5t-60 206.5z" />
<glyph unicode="&#x41a;" horiz-adv-x="1355" d="M66 0l305 1434h170l-142 -656q124 0 203.5 8t128.5 35q69 36 129.5 125.5t122.5 218.5q22 43 43.5 77t48.5 66.5t56 56t65 42t76 27t89 8.5t105 -10l-24 -115q-115 12 -184 -35t-128 -166q-34 -69 -58 -112.5t-59.5 -99.5t-74.5 -99t-82 -74l350 -706l-6 -25h-172 l-321 662q-96 -27 -338 -27l-133 -635h-170z" />
<glyph unicode="&#x41b;" horiz-adv-x="1478" d="M-88 4l29 127q47 -5 83.5 -5.5t67 13t53 30.5t42.5 47.5t35 63.5t30 78l346 1076h870l-303 -1434h-170l271 1280h-551l-295 -932q-47 -148 -107.5 -228.5t-157 -109.5t-243.5 -6z" />
<glyph unicode="&#x41c;" horiz-adv-x="1693" d="M66 0l305 1436h57l420 -801l760 801h75l-305 -1436h-172l219 1034l-608 -647h-26l-334 647l-219 -1034h-172z" />
<glyph unicode="&#x41d;" horiz-adv-x="1480" d="M66 0l305 1434h170l-129 -605h757l129 605h172l-305 -1434h-172l144 672h-758l-143 -672h-170z" />
<glyph unicode="&#x41e;" horiz-adv-x="1669" d="M115 567q0 194 73 362.5t195 283t283 180t335 65.5q172 0 310 -72t218.5 -208t80.5 -312q0 -186 -70.5 -351t-190 -283t-285 -186.5t-349.5 -68.5q-264 0 -432 160.5t-168 429.5zM281 598q-7 -216 119 -339.5t331 -123.5q136 0 262.5 53t223 144.5t156 223t63.5 280.5 q4 219 -120 343t-333 124q-134 0 -260 -53t-222.5 -145t-156 -224.5t-63.5 -282.5z" />
<glyph unicode="&#x41f;" horiz-adv-x="1480" d="M66 0l305 1434h1099l-305 -1434h-172l271 1276h-756l-270 -1276h-172z" />
<glyph unicode="&#x420;" horiz-adv-x="1331" d="M66 2l305 1432q377 0 565 -2q81 0 149.5 -23.5t117.5 -64.5t83 -97.5t48.5 -121t11.5 -136.5t-25 -143q-54 -173 -218.5 -281t-367.5 -108h-403l-96 -455h-170zM362 610h406q168 0 292 117.5t124 286.5q0 119 -77 194.5t-204 75.5h-403z" />
<glyph unicode="&#x421;" horiz-adv-x="1556" d="M122.5 412.5q-28.5 135.5 6.5 304.5q27 136 88 254t145.5 206t188 150.5t220 93.5t237.5 29q221 0 371.5 -116.5t170.5 -332.5h-164q-24 146 -135.5 218.5t-275.5 72.5q-261 4 -450.5 -174t-227.5 -442q-14 -70 -10.5 -137t18.5 -126.5t50.5 -109.5t84.5 -86t121 -56 t160 -20q171 0 318 80t229 238h182q-45 -103 -110 -185t-139 -135.5t-160 -89t-171 -50.5t-174 -15q-150 0 -271 51t-197.5 146.5t-105 231z" />
<glyph unicode="&#x422;" horiz-adv-x="1110" d="M174 1280l33 154h1050l-32 -154h-443l-272 -1280h-166l272 1280h-442z" />
<glyph unicode="&#x423;" horiz-adv-x="1259" d="M-2 16l53 140q182 -100 338 129l127 178l-332 950l4 21h174l263 -797h6l575 797h185l-5 -17l-833 -1163q-51 -75 -93.5 -125t-95 -91t-105.5 -56t-119.5 -8t-141.5 42z" />
<glyph unicode="&#x424;" horiz-adv-x="1824" d="M141 618q0 116 32.5 213.5t91.5 168t137 124t173 86.5t194.5 50t207.5 20l35 156h162l-35 -156q127 -3 232 -30.5t189.5 -81.5t131.5 -144t47 -209q0 -145 -47.5 -259t-126 -187t-188.5 -121.5t-227 -69t-249 -22.5l-35 -158h-159l34 162q-100 2 -187 18.5t-164 52 t-131.5 87.5t-86 128.5t-31.5 171.5zM313 631q0 -75 26 -133t68.5 -93t104.5 -58t124 -32t138 -12l176 830q-99 -1 -186.5 -16t-171.5 -51.5t-144.5 -92t-97.5 -143t-37 -199.5zM930 303q101 3 187.5 18t172 51t145.5 90.5t97 141.5t37 199q0 73 -25.5 130.5t-68.5 94 t-103.5 60t-125.5 34t-140 11.5z" />
<glyph unicode="&#x425;" horiz-adv-x="1286" d="M-102 0l6 25l674 731l-328 653l6 25h170l129 -267l135 -301h4l267 305l239 263h197l-6 -23l-607 -655l365 -733l-4 -23h-178l-166 336l-133 299h-6l-256 -295l-312 -340h-196z" />
<glyph unicode="&#x426;" horiz-adv-x="1492" d="M66 0l305 1434h172l-273 -1276h723l273 1276h172l-275 -1287h154l-80 -376h-139l49 229h-1081z" />
<glyph unicode="&#x427;" horiz-adv-x="1288" d="M183 958.5q1 114.5 30 262.5l45 211h172l-45 -211q-24 -118 -27.5 -205t15.5 -154t62 -107.5t114 -61t169.5 -19.5t231.5 22l158 736h170l-305 -1432h-170l115 537q-141 -20 -253 -17.5t-203.5 28.5t-151 79t-94 135t-33.5 196.5z" />
<glyph unicode="&#x428;" horiz-adv-x="2105" d="M66 0l305 1434h170l-273 -1276h602l273 1276h172l-273 -1276h609l272 1276h172l-305 -1434h-1724z" />
<glyph unicode="&#x429;" horiz-adv-x="2127" d="M66 0l305 1434h174l-273 -1276h586l272 1276h173l-273 -1276h600l273 1276h170l-275 -1287h156l-80 -374h-141l49 227h-1716z" />
<glyph unicode="&#x42a;" horiz-adv-x="1429" d="M178 0l275 1288h-271l31 146h438l-104 -492h397q191 0 301.5 -105.5t108.5 -273.5q-2 -169 -82.5 -298t-218 -197t-310.5 -68h-565zM379 152h395q169 0 290.5 111.5t121.5 271.5q0 256 -277 256h-395z" />
<glyph unicode="&#x42b;" horiz-adv-x="1851" d="M66 0l305 1434h166q-19 -82 -23 -107l-82 -385h395q155 0 254.5 -66.5t132.5 -177.5t5 -254q-40 -208 -204.5 -326t-387.5 -118h-561zM264 152h369q158 0 274 82t152 229q35 145 -39 236.5t-225 91.5h-97h-299zM1366 0l305 1434h170l-305 -1434h-170z" />
<glyph unicode="&#x42c;" horiz-adv-x="1318" d="M66 0l305 1434h166l-105 -492h395q191 0 300 -106.5t112 -272.5q4 -173 -77.5 -302.5t-220.5 -195t-314 -65.5h-561zM264 152h395q167 0 288.5 111.5t121.5 273.5q0 118 -70.5 186t-203.5 68h-396z" />
<glyph unicode="&#x42d;" horiz-adv-x="1558" d="M49 455h162q48 -318 420 -318q244 0 422.5 137.5t244.5 364.5h-639l31 149h641q35 223 -91.5 365.5t-356.5 142.5q-159 0 -299 -76t-232 -219h-178q73 145 197.5 249.5t264 153.5t282.5 50q260 3 423.5 -160.5t157.5 -429.5q-4 -170 -54.5 -314t-135.5 -247.5 t-198 -176.5t-243 -108.5t-270 -35.5q-109 0 -205 29.5t-171.5 86.5t-121.5 149t-51 208z" />
<glyph unicode="&#x42e;" horiz-adv-x="2179" d="M66 0l305 1434h172l-133 -627h256q41 153 128.5 278t204 205.5t253 123.5t278.5 42q260 -2 423 -162t163 -428q1 -169 -48.5 -314t-135 -249.5t-200.5 -178.5t-247 -110.5t-273 -36.5q-135 0 -246 44t-189 127t-115.5 211.5t-24.5 289.5h-262l-137 -649h-172zM799 598 q-3 -210 117 -334.5t321 -124.5q183 0 342 87.5t258 249t102 360.5q3 207 -118 331.5t-322 124.5q-109 0 -212.5 -32.5t-190.5 -94.5t-153 -146t-104 -192.5t-40 -228.5z" />
<glyph unicode="&#x42f;" horiz-adv-x="1384" d="M-55 0l6 25l516 530q-123 31 -192.5 120t-69.5 218q0 111 43.5 210t120 173t189.5 117t245 43h571l-305 -1436h-172l111 522h-375l-486 -522h-202zM373 918q0 -112 73 -180t193 -68h401l131 614h-401q-162 0 -279.5 -104t-117.5 -262z" />
<glyph unicode="&#x430;" horiz-adv-x="1220" d="M55.5 344q0.5 76 16.5 160q53 238 231.5 371t425.5 133q190 -3 375 -93l-137 -647q-7 -30 -10 -46t-4.5 -36.5t4 -30t16.5 -19t31.5 -11.5t50.5 0l-25 -121q-126 -21 -183.5 17.5t-33.5 150.5l8 35q-67 -108 -177 -164.5t-234 -56.5q-87 0 -155.5 27.5t-109.5 75.5 t-65.5 113.5t-24 141.5zM227 487q-34 -163 20.5 -258.5t205.5 -95.5q149 0 260.5 103t148.5 268l68 315q-103 53 -240 53q-165 0 -294.5 -106t-168.5 -279z" />
<glyph unicode="&#x431;" d="M90 358q-19 205 41 384t197 316.5t338 211.5q24 9 68 24t69 24t60.5 24.5t55.5 30t40.5 34t28.5 44.5t7 54h158q6 -76 -20 -132t-99 -99.5t-126 -65t-171 -61.5l-12 -4.5t-11 -3.5t-12 -4q-164 -55 -267.5 -145t-155.5 -240q68 99 194 163.5t260 65.5q101 2 179.5 -33.5 t124.5 -97.5t68 -139t17 -162q-8 -169 -91 -298t-220 -198t-307 -69q-189 0 -293.5 105.5t-120.5 270.5zM238 410q0 -132 79.5 -207.5t212.5 -75.5q124 0 225 59.5t155.5 157t54.5 209.5q0 128 -70.5 206.5t-210.5 78.5q-94 0 -178 -37.5t-142 -97.5t-92 -137t-34 -156z" />
<glyph unicode="&#x432;" horiz-adv-x="1185" d="M33 41l229 1079q26 119 103 208t182 133t223 44q182 0 277 -97.5t69 -277.5q-21 -111 -93.5 -190t-178.5 -117q108 -26 170 -113t57 -206q-6 -140 -59 -247.5t-140 -171.5t-196.5 -93.5t-235.5 -24.5q-249 11 -407 74zM213 143q129 -34 244 -34q91 0 170 21t144.5 65 t103.5 121t38 180q0 127 -76.5 192.5t-218.5 63.5q-125 0 -286 -50zM360 838q46 14 116 27t125.5 21t118.5 26.5t108 43.5t80.5 71.5t49.5 111.5q24 116 -34 175.5t-181 59.5q-110 0 -204 -68.5t-119 -183.5z" />
<glyph unicode="&#x433;" horiz-adv-x="1019" d="M12 266q10 56 35 101t63.5 76t79 52.5t97 36.5t101.5 23t108 16q149 22 210.5 50.5t77.5 97.5q15 55 -11.5 92.5t-76.5 53.5t-116 16q-105 0 -189 -40.5t-100 -115.5h-154q16 91 90.5 157t173 96t205.5 30q79 0 144.5 -19t113.5 -55t67 -95.5t1 -133.5 q-11 -47 -34.5 -84.5t-59 -63.5t-74 -45t-89.5 -32t-93.5 -20t-98.5 -14q-151 -22 -227 -61t-94 -119q-6 -58 29.5 -96t91 -52t129.5 -14q69 0 130 18.5t109 60.5t66 102h166q-20 -103 -96.5 -176t-176.5 -105.5t-211 -32.5q-181 0 -286 75t-101 220z" />
<glyph unicode="&#x434;" d="M57 389q0 156 77.5 292t217 218.5t305.5 79.5q132 -3 228 -71t121 -169q63 292 -5 435t-243 143q-154 0 -365 -103v127q217 111 395 111q82 0 147 -22t107.5 -59.5t71.5 -92t42.5 -115.5t16 -133t-4 -142t-20 -146t-30.5 -141t-37 -130q-34 -110 -86 -196.5t-126 -153.5 t-175.5 -103t-224.5 -36q-103 0 -184 33.5t-129.5 91t-73.5 129.5t-25 153zM225 485q-35 -155 33.5 -258.5t228.5 -103.5q158 0 284 100t161 260q9 55 6 106t-25.5 96.5t-57 79.5t-88 53.5t-118.5 19.5q-159 0 -274.5 -102.5t-149.5 -250.5z" />
<glyph unicode="&#x435;" horiz-adv-x="1097" d="M84 557q64 220 225 335t377 120q63 0 119.5 -12t106 -37t82 -64t46 -92.5t-1.5 -122.5q-18 -77 -65.5 -135.5t-112 -91t-132.5 -48.5t-138 -16q-108 0 -208.5 24.5t-160.5 76.5q-46 -187 40 -285t282 -98q141 0 344 84l-21 -140q-155 -69 -358 -73q-266 -4 -382 154 t-42 421zM262 618q48 -48 140 -72t186 -24q62 0 119 14.5t108.5 54t69.5 99.5q12 41 3 72.5t-31 54t-55.5 37t-70 21t-74.5 6.5q-132 0 -236.5 -67.5t-158.5 -195.5z" />
<glyph unicode="&#x436;" horiz-adv-x="1525" d="M-74 0l4 20l432 488q-258 106 -167 479h147q-52 -216 25 -315t319 -99l88 416h152l-84 -416q90 0 173.5 25t155.5 74.5t122.5 130.5t66.5 184h147q-29 -171 -122 -298t-250 -181l225 -488l-4 -20h-162l-197 461q-112 -23 -188 -23l-92 -438h-154l92 438q-34 0 -61 2.5 t-38.5 5t-30.5 7.5t-25 6l-400 -459h-174z" />
<glyph unicode="&#x437;" horiz-adv-x="983" d="M-33 88l39 141q45 -49 148 -81.5t204 -32.5q61 0 114.5 11t99.5 33.5t73 63t27 94.5q0 35 -17 60.5t-42.5 39.5t-63.5 22.5t-72 11t-76 2.5h-131l27 127q19 0 60 -1t63 -1q46 0 79.5 2.5t74.5 12.5t66.5 27.5t43.5 51t18 80.5q0 122 -210 122q-75 0 -169.5 -19.5 t-160.5 -53.5l18 127q74 37 173.5 58t191.5 20q65 0 122 -13.5t104.5 -40t75 -72t27.5 -104.5q0 -90 -58.5 -159.5t-147.5 -88.5q79 -19 124.5 -71t45.5 -129q0 -72 -28.5 -131.5t-76 -99.5t-111 -67.5t-131.5 -40t-139 -12.5q-114 0 -218.5 30.5t-166.5 80.5z" />
<glyph unicode="&#x438;" horiz-adv-x="1230" d="M100 860l27 125q156 32 218.5 -18t31.5 -199l-76 -356q-64 -297 176 -297q133 0 235 81t140 218l123 573h158l-154 -723q-8 -34 -11.5 -55.5t-5.5 -41.5t1.5 -30t9.5 -18t19 -10.5t29.5 -2.5t41.5 3l-23 -111q-36 -6 -65.5 -9t-58 -2t-49.5 7t-37.5 18t-24 31t-7 47 t10.5 64q-74 -96 -169 -133t-220 -37q-96 0 -162.5 32.5t-97 90t-37 135.5t15.5 170q82 379 82 401q0 23 -12 35q-18 24 -109 12z" />
<glyph unicode="&#x439;" horiz-adv-x="1230" d="M100 860q91 12 109 -12q12 -12 12 -35q0 -22 -82 -401q-22 -92 -15.5 -170t37 -135.5t97 -90t162.5 -32.5q125 0 220 37t169 133q-10 -36 -10.5 -64t7 -47t24 -31t37.5 -18t49.5 -7t58 2t65.5 9l23 111q-25 -3 -41.5 -3t-29.5 2.5t-19 10.5t-9.5 18t-1.5 30t5.5 41.5 t11.5 55.5l154 723h-158l-123 -573q-38 -137 -140 -218t-235 -81q-240 0 -176 297l76 356q31 149 -31.5 199t-218.5 18zM459 1432l112 12q-4 -72 38 -112t120 -40q74 0 135.5 39.5t89.5 112.5q28 -2 113 -12q-41 -125 -129.5 -195t-222.5 -70q-120 0 -194 72.5t-62 192.5z " />
<glyph unicode="&#x43a;" horiz-adv-x="1130" d="M70 0l157 745q6 31 8.5 49.5t0 34t-8.5 22t-22 10.5t-35.5 3t-52.5 -4l26 125q156 32 218.5 -18t31.5 -199l-39 -184h131q191 0 313 109t165 296h153q-72 -374 -387 -487l234 -484l-5 -18h-163l-207 461q-58 -12 -131 -12h-129l-97 -449h-161z" />
<glyph unicode="&#x43b;" horiz-adv-x="1189" d="M-92 0l31 121q33 -5 60 -5.5t48.5 5t38.5 13.5t32 24.5t25.5 31.5t22.5 41t19.5 47.5t19.5 55.5l213 653h702l-209 -987h-157l180 844h-410l-166 -518q-19 -61 -37.5 -106t-41 -84.5t-48 -65t-57.5 -44.5t-71.5 -27t-87 -8t-107.5 9z" />
<glyph unicode="&#x43c;" horiz-adv-x="1306" d="M27 0q188 869 213 987h39l331 -541l586 541h43q-111 -524 -211 -987h-154l140 641l-426 -395h-17l-247 403l-142 -649h-155z" />
<glyph unicode="&#x43d;" horiz-adv-x="1265" d="M72 0q166 781 166 809q3 25 -11 39q-18 23 -108 12q13 71 26 125q157 32 217 -17t29 -200l-39 -188h559l86 407h156l-158 -747q-18 -94 -5.5 -108.5t101.5 -7.5q10 1 15 1l-27 -125q-157 -32 -218 17.5t-25 199.5l47 223h-559l-95 -440h-157z" />
<glyph unicode="&#x43e;" horiz-adv-x="1230" d="M61 393q0 118 38 220t101.5 174t146 123t172 75.5t179.5 24.5q115 0 211 -45t158.5 -140t62.5 -225q0 -117 -34.5 -217.5t-95 -173t-141.5 -124t-175 -76.5t-195 -25q-117 0 -212 44.5t-155.5 139t-60.5 225.5zM217 416q0 -142 82 -218.5t207 -76.5q66 0 129.5 16.5 t123 52.5t106 88t76 128.5t34.5 168.5q7 137 -78.5 219.5t-210.5 82.5q-81 0 -162.5 -30t-150.5 -86t-112.5 -146t-43.5 -199z" />
<glyph unicode="&#x43f;" d="M57 0l150 707q25 112 23 137q-2 40 -42 46q-23 4 -65 -1l20 104q130 30 194 -14.5t40 -157.5q64 97 167.5 142t223.5 45q96 0 165.5 -32t104.5 -88t46.5 -133t-9.5 -167l-78 -371q-13 -72 4.5 -93.5t96.5 -10.5l-25 -113q-151 -26 -210.5 19t-28.5 194l79 375 q29 132 -32.5 210.5t-184.5 78.5q-125 0 -225 -82t-129 -215l-123 -580h-162z" />
<glyph unicode="&#x440;" horiz-adv-x="1222" d="M-49 -504l266 1256q1 4 2 10q7 38 9.5 66t-20.5 43t-77 12l23 116q125 21 183 -18t34 -150l-6 -28q66 97 161 150t207 61q92 5 164.5 -20t116.5 -71.5t72.5 -110.5t33 -137.5t-1.5 -152.5q-17 -148 -92.5 -273t-200 -201.5t-268.5 -76.5q-248 0 -311 205l-146 -680h-149z M309 397q0 -127 59.5 -204.5t180.5 -77.5q87 0 163 37t127.5 97.5t84 135.5t41.5 154q14 156 -47.5 242.5t-208.5 86.5q-114 -3 -207 -71.5t-143 -175t-50 -224.5z" />
<glyph unicode="&#x441;" horiz-adv-x="1159" d="M59 446q14 111 59 205.5t109.5 160.5t145 112.5t166 68t172.5 19.5q156 0 265 -86.5t116 -239.5h-148q-13 93 -87.5 139.5t-176.5 46.5q-97 0 -190.5 -44t-166 -133.5t-96.5 -207.5q-22 -98 1 -178.5t91.5 -130.5t172.5 -53q52 0 102 11t99.5 34t94 64.5t76.5 97.5h170 q-53 -119 -147 -199.5t-197 -114.5t-215 -34q-195 0 -317.5 131t-98.5 331z" />
<glyph unicode="&#x442;" horiz-adv-x="923" d="M84 846l31 141h852l-31 -141h-348l-180 -844h-156l180 844h-348z" />
<glyph unicode="&#x443;" horiz-adv-x="1216" d="M-27 -428l41 135q72 -47 161 -73.5t184 -24.5t179 34t149 111t91 197l49 217q-51 -91 -153 -143t-215 -52q-91 -3 -157.5 24t-104 73.5t-55.5 112t-17 136t16 148.5l60 278q20 80 1 103.5t-110 11.5q10 54 27 125q154 31 215 -21t31 -196l-64 -299q-38 -181 8.5 -266.5 t186.5 -85.5q83 0 154.5 40t119.5 105t79.5 136.5t47.5 146.5l94 442h158l-221 -1036q-32 -146 -109.5 -253t-179.5 -160t-218.5 -68t-232.5 12t-215 90z" />
<glyph unicode="&#x444;" horiz-adv-x="1925" d="M64.5 314.5q-4.5 73.5 1.5 152.5q12 110 59 210.5t121 174.5q166 166 381 166q243 0 319 -205l137 680h150l-139 -653q57 72 137 114q91 50 205 60q92 5 164.5 -20t116.5 -71.5t72.5 -110.5t33 -137.5t-1.5 -152.5q-12 -110 -60 -211t-123 -176q-164 -164 -378 -164 q-249 0 -312 205l-145 -680h-150l138 651q-59 -71 -136 -112q-91 -51 -204 -60q-92 -5 -164.5 20t-116.5 71.5t-72.5 110.5t-33 137.5zM219 451q-14 -156 47.5 -243t208.5 -87q114 3 207 71.5t142.5 175t49.5 224.5q0 127 -59 204.5t-180 77.5q-87 0 -163 -36.5 t-127.5 -97.5t-84 -135.5t-41.5 -153.5zM1012 397q0 -127 59 -204.5t180 -77.5q87 0 163 37t127.5 97.5t84 135.5t41.5 154q14 156 -47.5 242.5t-208.5 86.5q-114 -3 -207 -71.5t-142.5 -175t-49.5 -224.5z" />
<glyph unicode="&#x445;" horiz-adv-x="1003" d="M-94 0l4 18l487 506l-229 447l2 16h158l176 -366h4l180 196l164 170h166l-2 -18l-434 -453l262 -498l-4 -18h-148l-106 203l-109 223h-4l-194 -217l-205 -209h-168z" />
<glyph unicode="&#x446;" horiz-adv-x="1251" d="M100 860l27 125q158 32 219 -20t27 -211l-74 -342q-32 -139 9.5 -218t158.5 -79q131 0 244.5 88.5t142.5 222.5l119 561h160l-158 -743q-22 -106 0 -135t115 -23l-82 -350h-127l51 248q-65 -6 -95 18t-28 69t14 105q-63 -102 -170 -147t-235 -45q-96 0 -162 33t-96 90.5 t-37.5 135.5t14.5 169l72 333q20 80 1 103.5t-110 11.5z" />
<glyph unicode="&#x447;" horiz-adv-x="1087" d="M102 560.5q-9 77.5 9 174.5l53 252h160l-54 -252q-15 -63 -10.5 -112t21.5 -89.5t48.5 -65.5t69.5 -39t85 -10.5t94.5 20.5t98.5 53t97 88l86 407h158l-209 -987h-162l86 401q-55 -49 -121.5 -78.5t-132.5 -36.5t-130.5 5.5t-115 47.5t-86.5 89.5t-45 132z" />
<glyph unicode="&#x448;" horiz-adv-x="1859" d="M100 860l27 125q63 13 108 14t80 -11.5t51 -42t20 -77t-13 -116.5l-74 -353q-15 -81 -15 -144.5t38.5 -102.5t117.5 -39q126 0 237 85t138 214l123 575h158l-123 -579q-16 -85 -13 -150.5t45.5 -105t124.5 -39.5q129 0 225.5 83t125.5 218l123 573h157l-151 -715 q-27 -99 -13.5 -137t95.5 -22l-23 -117q-26 -4 -43 -6.5t-39.5 -4.5t-37.5 -1.5t-33 2.5t-28.5 8t-22 14.5t-17 22.5t-9 31.5t-1.5 41t8 52.5q-59 -76 -157 -125t-204 -49q-221 0 -254 211q-169 -209 -423 -209q-163 0 -240.5 103.5t-32.5 311.5l74 346q11 47 9 75.5t-29 38 t-89 1.5z" />
<glyph unicode="&#x449;" horiz-adv-x="1878" d="M100 862l27 123q51 10 89.5 13t71.5 -2t53.5 -21.5t32.5 -45t11.5 -72.5t-12.5 -103l-72 -336q-9 -42 -13.5 -71t-6.5 -68t6 -65.5t24.5 -51t49 -37t79.5 -12.5q129 0 231 87.5t134 233.5l119 553h157l-112 -530q-9 -41 -14 -71t-8 -68.5t0 -65.5t13.5 -55t29.5 -45 t51 -28t75 -11q140 0 241 99.5t132 246.5l113 528h159l-159 -751q-11 -52 -12 -87.5t29 -52t101 -10.5l-84 -356h-133l53 250q-94 -4 -112.5 37.5t8.5 144.5q-69 -94 -171.5 -137t-217.5 -43q-110 0 -173 45.5t-75 148.5q-146 -196 -409 -196q-167 0 -241 114t-26 324 l70 327q21 80 2 104.5t-111 12.5z" />
<glyph unicode="&#x44a;" horiz-adv-x="1153" d="M92 852l29 135h395l-92 -424q119 99 295 99q141 0 233 -73t92 -198q0 -87 -30 -157.5t-79.5 -115.5t-115.5 -75.5t-134 -43.5t-140 -13q-81 0 -146 20t-113.5 62.5t-64 109t1.5 160.5l109 514h-240zM379 338q-24 -109 31 -166t161 -57q75 0 145 26.5t119.5 86t49.5 139.5 q0 61 -35.5 100.5t-82.5 53.5t-103 14q-36 0 -78 -11t-85.5 -33t-77 -62t-44.5 -91z" />
<glyph unicode="&#x44b;" horiz-adv-x="1476" d="M86.5 177.5q-15.5 66.5 1.5 160.5l137 649h156l-92 -424q119 99 295 99q141 0 233 -73t92 -198q0 -87 -30 -157.5t-79.5 -115.5t-115.5 -75.5t-134 -43.5t-140 -13q-81 0 -146 20t-113.5 62.5t-64 109zM244 338q-24 -109 31 -166t161 -57q75 0 145 26.5t119.5 86 t49.5 139.5q0 61 -35.5 100.5t-83 53.5t-103.5 14q-36 0 -78 -11t-85 -33t-76.5 -62t-44.5 -91zM1040 0l199 985h162l-199 -985h-162z" />
<glyph unicode="&#x44c;" horiz-adv-x="1019" d="M86.5 177.5q-15.5 66.5 1.5 160.5l137 649h156l-92 -424q119 99 295 99q141 0 233 -73t92 -198q0 -87 -30 -157.5t-79.5 -115.5t-115.5 -75.5t-134 -43.5t-140 -13q-81 0 -146 20t-113.5 62.5t-64 109zM244 338q-24 -109 31 -166t161 -57q75 0 145 26.5t119.5 86 t49.5 139.5q0 61 -35.5 100.5t-83 53.5t-103.5 14q-36 0 -78 -11t-85 -33t-76.5 -62t-44.5 -91z" />
<glyph unicode="&#x44d;" horiz-adv-x="1171" d="M25 336l149 4q25 -219 287 -219q141 2 262 81t164 224h-473l28 133h473q10 76 -11.5 136t-66.5 96.5t-103 55.5t-124 19q-102 -2 -195.5 -49.5t-150.5 -138.5l-166 4q50 106 142 182t194.5 111t206.5 35q180 0 304 -110t124 -306q0 -123 -39 -228.5t-103.5 -178 t-148 -123t-173 -71t-177.5 -13.5q-169 -2 -284.5 91t-118.5 265z" />
<glyph unicode="&#x44e;" horiz-adv-x="1642" d="M29 0l209 987h155l-86 -407h207q36 104 103.5 187.5t150.5 135t174.5 78.5t183.5 27q115 0 209.5 -45.5t153 -140.5t55.5 -224q-2 -122 -41 -225.5t-102 -174.5t-145.5 -121t-171.5 -73t-181 -24t-172.5 28t-141 84.5t-89.5 145t-15 200.5h-209l-92 -438h-155zM635 418 q-7 -141 75 -219t208 -76q63 0 126.5 18.5t122 56t105 89.5t76 125t32.5 157q7 139 -70.5 216t-199.5 79q-81 1 -161.5 -28t-149.5 -83t-114 -141.5t-50 -193.5z" />
<glyph unicode="&#x44f;" horiz-adv-x="1056" d="M-57 0l4 16l364 365q-83 12 -136.5 79t-53.5 158q0 152 121 260.5t293 108.5h452l-209 -987h-162l72 342h-229l-328 -342h-188zM283 629q0 -71 50.5 -112.5t133.5 -41.5h250l82 381h-250q-112 0 -189 -63.5t-77 -163.5z" />
<glyph unicode="&#x451;" horiz-adv-x="1097" d="M84 557q64 220 225 335t377 120q63 0 119.5 -12t106 -37t82 -64t46 -92.5t-1.5 -122.5q-18 -77 -65.5 -135.5t-112 -91t-132.5 -48.5t-138 -16q-108 0 -208.5 24.5t-160.5 76.5q-46 -187 40 -285t282 -98q141 0 344 84l-21 -140q-155 -69 -358 -73q-266 -4 -382 154 t-42 421zM262 618q48 -48 140 -72t186 -24q62 0 119 14.5t108.5 54t69.5 99.5q12 41 3 72.5t-31 54t-55.5 37t-70 21t-74.5 6.5q-132 0 -236.5 -67.5t-158.5 -195.5zM436 1317q0 42 34.5 71t78.5 29q36 0 58 -19.5t22 -51.5q0 -41 -36 -71t-81 -30q-35 0 -55.5 20.5 t-20.5 51.5zM856 1317q0 42 33.5 71t81.5 29q35 0 55.5 -19.5t20.5 -51.5q0 -41 -34.5 -71t-78.5 -30q-35 0 -56.5 20.5t-21.5 51.5z" />
<glyph unicode="&#x452;" horiz-adv-x="1185" d="M29 0l262 1235h-164l27 121h163l29 141h162l-29 -141h320l-27 -121h-319l-80 -379q141 162 372 162q82 0 144 -22.5t98.5 -62.5t56.5 -95t19 -119.5t-14 -136.5l-70 -334q-49 -234 -165.5 -334t-324.5 -64q6 23 15.5 67.5t13.5 59.5q38 -7 70.5 -7t58 7t46 18t37 31 t29 41.5t23.5 52t19 60.5t16 70l70 332q29 139 -27.5 218t-185.5 79q-131 0 -233.5 -89.5t-131.5 -228.5l-119 -561h-161z" />
<glyph unicode="&#x453;" horiz-adv-x="874" d="M29 0l209 987h700l-29 -141h-540l-181 -846h-159zM541 1178l4 14l237 293l129 -51l-4 -15l-239 -241h-127z" />
<glyph unicode="&#x454;" horiz-adv-x="1167" d="M57 387q3 122 43 225.5t104 175.5t147.5 123t173.5 75t182 24q77 0 144.5 -20.5t121.5 -60t86.5 -103.5t36.5 -144l-150 -4q-14 101 -89.5 147.5t-180.5 40.5q-140 0 -265.5 -81.5t-170.5 -229.5h471l-27 -129h-471q-9 -74 11 -133.5t62.5 -96t99 -55.5t122.5 -20 q108 0 212 57t161 162l166 -4q-52 -118 -147 -201t-201.5 -119.5t-217.5 -35.5q-86 0 -162.5 25.5t-136.5 74.5t-94 128.5t-31 178.5z" />
<glyph unicode="&#x455;" horiz-adv-x="1036" d="M12 279h152q-5 -43 7.5 -75.5t35 -51t58 -30t70.5 -15t79 -3.5q72 0 137 17t116 57.5t64 97.5q4 19 4 35t-3.5 29.5t-12.5 24.5t-20 20t-28.5 17t-35.5 13.5t-42.5 11.5t-48.5 10t-55 9q-60 8 -105 17t-96 27t-83.5 42t-54 62.5t-21.5 87.5q0 66 27.5 121t73.5 92t108 63 t129 38t137 12q107 0 193 -30.5t132 -96.5t25 -156h-149q11 81 -53 118.5t-174 37.5q-73 0 -137.5 -18t-111 -60.5t-46.5 -102.5q0 -56 56 -82t191 -47q34 -5 60.5 -9t58.5 -10.5t56.5 -14t51.5 -18t46.5 -23.5t38 -29.5t29.5 -37t17.5 -45t5.5 -54.5t-9 -64 q-16 -74 -63 -130t-116 -90t-149 -51.5t-170 -19.5q-66 0 -124 10t-109 32.5t-85.5 57t-50.5 87t-6 117.5z" />
<glyph unicode="&#x456;" horiz-adv-x="466" d="M29 0l209 979h159l-209 -979h-159zM285 1292q0 56 38.5 88.5t86.5 32.5q35 0 59.5 -20.5t24.5 -59.5q0 -56 -39 -88.5t-88 -32.5q-35 0 -58.5 20.5t-23.5 59.5z" />
<glyph unicode="&#x457;" horiz-adv-x="468" d="M29 0l209 985h161l-209 -985h-161zM113 1341q0 48 37 79.5t86 31.5q37 0 60 -21.5t23 -56.5q0 -46 -36.5 -77t-87.5 -31q-35 0 -58.5 21.5t-23.5 53.5zM471 1341q0 48 36 79.5t87 31.5q37 0 59.5 -21.5t22.5 -56.5q0 -46 -37 -77t-86 -31q-36 0 -59 21t-23 54z" />
<glyph unicode="&#x458;" horiz-adv-x="464" d="M-334 -512l31 125q39 -7 71.5 -7.5t58.5 6t47.5 18t38.5 31t30 41.5t24.5 52.5t19.5 60.5t17 70l234 1098h157l-233 -1100q-51 -239 -168 -337t-328 -58zM283 1292q0 56 38.5 88.5t86.5 32.5q37 0 60.5 -20.5t23.5 -59.5q0 -56 -39 -88.5t-88 -32.5q-35 0 -58.5 20.5 t-23.5 59.5z" />
<glyph unicode="&#x459;" horiz-adv-x="1626" d="M-92 0l31 121q33 -5 60 -5.5t48.5 5t38.5 13.5t32 24.5t25.5 31.5t22.5 41t19.5 47.5t19.5 55.5l213 653h598l-92 -424q119 99 286 99q139 0 222.5 -72t83.5 -199q0 -87 -28 -157.5t-74.5 -115.5t-109.5 -75.5t-129.5 -43.5t-138.5 -13q-81 0 -144.5 20t-110 62.5 t-61 109t2.5 160.5l106 506h-305l-166 -518q-19 -61 -37.5 -106t-41 -84.5t-48 -65t-57.5 -44.5t-71.5 -27t-87 -8t-107.5 9zM879 338q-24 -110 27.5 -166.5t156.5 -56.5q75 0 139.5 26.5t109 85.5t44.5 140q0 89 -57 128.5t-144 39.5q-49 0 -103.5 -18t-106.5 -65.5 t-66 -113.5z" />
<glyph unicode="&#x45a;" horiz-adv-x="1648" d="M72 0q166 781 166 809q3 25 -11 39q-18 23 -108 12q13 71 26 125q157 32 217 -17t29 -200l-39 -188h445l86 407h155l-92 -424q119 99 287 99q139 0 222 -72t83 -199q0 -87 -28 -157.5t-74.5 -115.5t-109.5 -75.5t-129 -43.5t-138 -13q-81 0 -145 20t-110.5 62.5t-61 109 t2.5 160.5l21 102h-442l-95 -440h-157zM901 338q-24 -110 27.5 -166.5t156.5 -56.5q75 0 139.5 26.5t109 85.5t44.5 140q0 89 -56.5 128.5t-143.5 39.5q-49 0 -104 -18t-107 -65.5t-66 -113.5z" />
<glyph unicode="&#x45b;" horiz-adv-x="1191" d="M29 0l262 1235h-164l27 121h163l29 141h162l-29 -141h320l-27 -121h-319l-80 -379q141 162 372 162q82 0 144 -22.5t98.5 -62.5t56.5 -95t19 -119.5t-14 -136.5l-121 -582h-162l121 582q29 139 -27.5 218t-185.5 79q-131 0 -233.5 -89.5t-131.5 -228.5l-119 -561h-161z " />
<glyph unicode="&#x45c;" horiz-adv-x="1130" d="M70 0l157 745q6 31 8.5 49.5t0 34t-8.5 22t-22 10.5t-35.5 3t-52.5 -4l26 125q156 32 218.5 -18t31.5 -199l-39 -184h131q191 0 313 109t165 296h153q-72 -374 -387 -487l234 -484l-5 -18h-163l-207 461q-58 -12 -131 -12h-129l-97 -449h-161zM569 1198l2 12l203 260 l129 -57l-4 -14l-190 -201h-140z" />
<glyph unicode="&#x45e;" horiz-adv-x="1216" d="M-27 -428q99 -63 215 -90t232.5 -12t218.5 68t179.5 160t109.5 253l221 1036h-158l-94 -442q-14 -61 -34.5 -116.5t-55.5 -114t-79 -101t-107.5 -69.5t-137.5 -27q-139 0 -180 84.5t-2 267.5l64 299q30 144 -31 196t-215 21q-17 -71 -27 -125q91 12 110 -11.5t-1 -103.5 l-60 -278q-15 -78 -16 -148.5t17 -136t55.5 -112t104 -73.5t157.5 -24q113 0 215 52t153 143l-49 -217q-26 -118 -91 -197t-149 -111t-179 -34t-184 24.5t-161 73.5zM451 1432l112 12q-4 -72 38 -112t120 -40q74 0 135.5 39.5t89.5 112.5q28 -2 113 -12 q-41 -125 -129.5 -195t-222.5 -70q-120 0 -194 72.5t-62 192.5z" />
<glyph unicode="&#x45f;" horiz-adv-x="1175" d="M29 0l209 987h157l-178 -844h549l178 844h162l-209 -987h-360l-48 -223h-147l47 223h-360z" />
<glyph unicode="&#x490;" horiz-adv-x="1058" d="M66 0l305 1434h698l47 219h137l-79 -371h-664l-272 -1282h-172z" />
<glyph unicode="&#x491;" horiz-adv-x="874" d="M29 0l209 987h571l43 203h129l-72 -344h-540l-181 -846h-159z" />
<glyph unicode="&#x2000;" horiz-adv-x="931" />
<glyph unicode="&#x2001;" horiz-adv-x="1862" />
<glyph unicode="&#x2002;" horiz-adv-x="931" />
<glyph unicode="&#x2003;" horiz-adv-x="1862" />
<glyph unicode="&#x2004;" horiz-adv-x="620" />
<glyph unicode="&#x2005;" horiz-adv-x="465" />
<glyph unicode="&#x2006;" horiz-adv-x="310" />
<glyph unicode="&#x2007;" horiz-adv-x="310" />
<glyph unicode="&#x2008;" horiz-adv-x="232" />
<glyph unicode="&#x2009;" horiz-adv-x="372" />
<glyph unicode="&#x200a;" horiz-adv-x="103" />
<glyph unicode="&#x2010;" horiz-adv-x="948" d="M143 612l31 142h666l-31 -142h-666z" />
<glyph unicode="&#x2011;" horiz-adv-x="948" d="M143 612l31 142h666l-31 -142h-666z" />
<glyph unicode="&#x2012;" horiz-adv-x="948" d="M143 612l31 142h666l-31 -142h-666z" />
<glyph unicode="&#x2013;" horiz-adv-x="1120" d="M143 612l31 142h838l-31 -142h-838z" />
<glyph unicode="&#x2014;" horiz-adv-x="1300" d="M143 612l31 142h1018l-31 -142h-1018z" />
<glyph unicode="&#x2018;" horiz-adv-x="450" d="M254 1174q0 25 4 34q11 28 21 49l96 181h102l-74 -148q58 -15 58 -73q0 -48 -37 -79.5t-88 -31.5q-36 0 -59 19t-23 49z" />
<glyph unicode="&#x2019;" horiz-adv-x="454" d="M268 1108l74 145q-53 15 -53 76q0 49 35 80t86 31q36 0 59.5 -18.5t24.5 -49.5q0 -23 -5 -35q-5 -15 -22 -49l-96 -180h-103z" />
<glyph unicode="&#x201a;" horiz-adv-x="487" d="M10 -176l78 153q-55 17 -55 76q0 48 36 79.5t87 31.5q36 0 59.5 -19t24.5 -51q0 -21 -4 -33q-1 -3 -25 -51q-10 -18 -98 -186h-103z" />
<glyph unicode="&#x201c;" horiz-adv-x="753" d="M254 1171q0 26 4 35q13 34 21 49l96 179h102l-74 -146q54 -15 54 -74q0 -48 -35 -79t-86 -31q-36 0 -59 18t-23 49zM557 1171q0 26 4 35q9 23 23 49l96 179h100l-71 -146q53 -15 53 -74q0 -48 -35 -79t-86 -31q-36 0 -59.5 17.5t-24.5 49.5z" />
<glyph unicode="&#x201d;" horiz-adv-x="765" d="M268 1108l74 145q-53 15 -53 76q0 49 35 80t86 31q36 0 59.5 -18.5t24.5 -49.5q0 -23 -5 -35q-5 -15 -22 -49l-96 -180h-103zM582 1108l71 145q-53 15 -53 76q0 49 35 80t86 31q36 0 59.5 -18.5t24.5 -49.5q0 -26 -4 -35q-3 -9 -23 -49l-96 -180h-100z" />
<glyph unicode="&#x201e;" horiz-adv-x="833" d="M10 -170l76 147q-53 15 -53 76q0 49 35.5 80t87.5 31q36 0 58 -19t22 -51q0 -28 -3 -33q-8 -25 -22 -49q-44 -79 -98 -182h-103zM358 -170l76 147q-55 17 -55 76q0 48 37 79.5t88 31.5q35 0 57 -19t23 -51q0 -21 -4 -33q-11 -28 -21 -49q-44 -79 -98 -182h-103z" />
<glyph unicode="&#x2026;" horiz-adv-x="1363" d="M33 61q0 52 37.5 83.5t89.5 31.5q39 0 63.5 -22t24.5 -58q0 -48 -38.5 -81t-90.5 -33q-38 0 -62 22t-24 57zM465 61q0 52 37.5 83.5t89.5 31.5q39 0 63.5 -22t24.5 -58q0 -48 -38.5 -81t-90.5 -33q-38 0 -62 22t-24 57zM907 61q0 50 37.5 82.5t89.5 32.5q37 0 61.5 -22 t24.5 -58q0 -48 -38 -81t-89 -33q-38 0 -62 22t-24 57z" />
<glyph unicode="&#x202f;" horiz-adv-x="372" />
<glyph unicode="&#x2039;" horiz-adv-x="626" d="M139 709l373 456l100 -37l-303 -419l125 -414l-115 -41z" />
<glyph unicode="&#x203a;" horiz-adv-x="624" d="M68 295l301 414l-123 419l112 37l181 -456l-373 -455z" />
<glyph unicode="&#x205f;" horiz-adv-x="465" />
<glyph unicode="&#x20ac;" horiz-adv-x="1333" d="M76 518l26 123h152q5 68 35 162h-152l25 119h172q115 244 334 386t473 142q129 0 239 -43l-80 -137q-84 35 -186 35q-190 0 -353 -105.5t-249 -277.5h541l-70 -119h-526q-22 -53 -35 -162h477l-70 -123h-409q13 -181 119 -284t313 -103q136 0 262 55l25 -141 q-152 -63 -314 -63q-267 0 -420.5 142.5t-158.5 393.5h-170z" />
<glyph unicode="&#x2122;" horiz-adv-x="1540" d="M289 1335l20 101h514l-20 -101h-201l-100 -471h-113l100 471h-200zM805 864l121 572h61l189 -297l313 297h61l-120 -572h-115l74 350l-244 -235h-8l-144 235l-73 -350h-115z" />
<glyph unicode="&#x25fc;" horiz-adv-x="983" d="M0 0v983h983v-983h-983z" />
</font>
</defs>
</svg>
